<svg xmlns="http://www.w3.org/2000/svg" xmlns:xlink="http://www.w3.org/1999/xlink" contentStyleType="text/css" data-diagram-type="ACTIVITY" height="911px" preserveAspectRatio="none" style="width:728px;height:911px;background:#FFFFFF;" version="1.1" viewBox="0 0 728 911" width="728px" zoomAndPan="magnify"><defs/><g><ellipse cx="357.5121" cy="20" fill="#222222" rx="10" ry="10" style="stroke:#222222;stroke-width:1;"/><rect fill="#F1F1F1" height="36.3441" rx="12.5" ry="12.5" style="stroke:#181818;stroke-width:0.5;" width="210.9093" x="252.0575" y="50"/><text fill="#000000" font-family="sans-serif" font-size="12" lengthAdjust="spacing" textLength="190.9093" x="262.0575" y="72.8281">Receive noteId and shouldArchive</text><rect fill="#F1F1F1" height="36.3441" rx="12.5" ry="12.5" style="stroke:#181818;stroke-width:0.5;" width="173.2531" x="270.8856" y="106.3441"/><text fill="#000000" font-family="sans-serif" font-size="12" lengthAdjust="spacing" textLength="153.2531" x="280.8856" y="129.1722">Find note in notes list by ID</text><rect fill="#F1F1F1" height="36.3441" rx="12.5" ry="12.5" style="stroke:#181818;stroke-width:0.5;" width="193.4492" x="260.7875" y="212.1792"/><text fill="#000000" font-family="sans-serif" font-size="12" lengthAdjust="spacing" textLength="173.4492" x="270.7875" y="235.0073">Throw NoNoteFoundException</text><ellipse cx="357.5121" cy="286.8512" fill="none" rx="11" ry="11" style="stroke:#222222;stroke-width:1;"/><ellipse cx="357.5121" cy="286.8512" fill="#222222" rx="6" ry="6" style="stroke:#222222;stroke-width:1;"/><polygon fill="#F1F1F1" points="315.5584,162.6882,399.4658,162.6882,411.4658,174.6882,399.4658,186.6882,315.5584,186.6882,303.5584,174.6882,315.5584,162.6882" style="stroke:#181818;stroke-width:0.5;"/><text fill="#000000" font-family="sans-serif" font-size="11" lengthAdjust="spacing" textLength="17.0829" x="361.5121" y="198.4471">yes</text><text fill="#000000" font-family="sans-serif" font-size="11" lengthAdjust="spacing" textLength="83.9074" x="315.5584" y="178.9562">Note not found?</text><text fill="#000000" font-family="sans-serif" font-size="11" lengthAdjust="spacing" textLength="13.4529" x="411.4658" y="171.4653">no</text><polygon fill="#F1F1F1" points="318.4239,339.8512,396.6004,339.8512,408.6004,351.8512,396.6004,363.8512,318.4239,363.8512,306.4239,351.8512,318.4239,339.8512" style="stroke:#181818;stroke-width:0.5;"/><text fill="#000000" font-family="sans-serif" font-size="11" lengthAdjust="spacing" textLength="78.1764" x="318.4239" y="356.1192">shouldArchive?</text><text fill="#000000" font-family="sans-serif" font-size="11" lengthAdjust="spacing" textLength="17.0829" x="289.3411" y="348.6283">yes</text><text fill="#000000" font-family="sans-serif" font-size="11" lengthAdjust="spacing" textLength="13.4529" x="408.6004" y="348.6283">no</text><rect fill="#F1F1F1" height="36.3441" rx="12.5" ry="12.5" style="stroke:#181818;stroke-width:0.5;" width="326.2062" x="11" y="423.3422"/><text fill="#000000" font-family="sans-serif" font-size="12" lengthAdjust="spacing" textLength="306.2062" x="21" y="446.1703">Throw InvalidInputException ("Note already archived")</text><ellipse cx="174.1031" cy="505.6863" fill="none" rx="11" ry="11" style="stroke:#222222;stroke-width:1;"/><ellipse cx="174.1031" cy="505.6863" fill="#222222" rx="6" ry="6" style="stroke:#222222;stroke-width:1;"/><polygon fill="#F1F1F1" points="109.5335,373.8512,238.6726,373.8512,250.6726,385.8512,238.6726,397.8512,109.5335,397.8512,97.5335,385.8512,109.5335,373.8512" style="stroke:#181818;stroke-width:0.5;"/><text fill="#000000" font-family="sans-serif" font-size="11" lengthAdjust="spacing" textLength="17.0829" x="178.1031" y="409.6101">yes</text><text fill="#000000" font-family="sans-serif" font-size="11" lengthAdjust="spacing" textLength="129.1391" x="109.5335" y="390.1192">Note is already archived?</text><text fill="#000000" font-family="sans-serif" font-size="11" lengthAdjust="spacing" textLength="13.4529" x="250.6726" y="382.6283">no</text><rect fill="#F1F1F1" height="36.3441" rx="12.5" ry="12.5" style="stroke:#181818;stroke-width:0.5;" width="303.4301" x="389.2062" y="423.3422"/><text fill="#000000" font-family="sans-serif" font-size="12" lengthAdjust="spacing" textLength="283.4301" x="399.2062" y="446.1703">Throw InvalidInputException ("Note not archived")</text><ellipse cx="540.9212" cy="505.6863" fill="none" rx="11" ry="11" style="stroke:#222222;stroke-width:1;"/><ellipse cx="540.9212" cy="505.6863" fill="#222222" rx="6" ry="6" style="stroke:#222222;stroke-width:1;"/><polygon fill="#F1F1F1" points="486.7906,373.8512,595.0518,373.8512,607.0518,385.8512,595.0518,397.8512,486.7906,397.8512,474.7906,385.8512,486.7906,373.8512" style="stroke:#181818;stroke-width:0.5;"/><text fill="#000000" font-family="sans-serif" font-size="11" lengthAdjust="spacing" textLength="17.0829" x="544.9212" y="409.6101">yes</text><text fill="#000000" font-family="sans-serif" font-size="11" lengthAdjust="spacing" textLength="108.2612" x="486.7906" y="390.1192">Note is not archived?</text><text fill="#000000" font-family="sans-serif" font-size="11" lengthAdjust="spacing" textLength="13.4529" x="607.0518" y="382.6283">no</text><polygon fill="#F1F1F1" points="357.5121,544.6863,369.5121,556.6863,357.5121,568.6863,345.5121,556.6863,357.5121,544.6863" style="stroke:#181818;stroke-width:0.5;"/><rect fill="#F1F1F1" height="36.3441" rx="12.5" ry="12.5" style="stroke:#181818;stroke-width:0.5;" width="373.8226" x="170.6009" y="588.6863"/><text fill="#000000" font-family="sans-serif" font-size="12" lengthAdjust="spacing" textLength="353.8226" x="180.6009" y="611.5144">Move physical file using Storage.moveNoteBetweenDirectories</text><rect fill="#F1F1F1" height="36.3441" rx="12.5" ry="12.5" style="stroke:#181818;stroke-width:0.5;" width="313.2941" x="200.8651" y="645.0304"/><text fill="#000000" font-family="sans-serif" font-size="12" lengthAdjust="spacing" textLength="293.2941" x="210.8651" y="667.8585">Update Note metadata (archived flag, archiveName)</text><rect fill="#F1F1F1" height="36.3441" rx="12.5" ry="12.5" style="stroke:#181818;stroke-width:0.5;" width="175.5691" x="269.7276" y="701.3745"/><text fill="#000000" font-family="sans-serif" font-size="12" lengthAdjust="spacing" textLength="155.5691" x="279.7276" y="724.2026">Save notes via Storage.save</text><polygon fill="#F1F1F1" points="318.4239,757.7186,396.6004,757.7186,408.6004,769.7186,396.6004,781.7186,318.4239,781.7186,306.4239,769.7186,318.4239,757.7186" style="stroke:#181818;stroke-width:0.5;"/><text fill="#000000" font-family="sans-serif" font-size="11" lengthAdjust="spacing" textLength="78.1764" x="318.4239" y="773.9866">shouldArchive?</text><text fill="#000000" font-family="sans-serif" font-size="11" lengthAdjust="spacing" textLength="17.0829" x="289.3411" y="766.4957">yes</text><text fill="#000000" font-family="sans-serif" font-size="11" lengthAdjust="spacing" textLength="13.4529" x="408.6004" y="766.4957">no</text><rect fill="#F1F1F1" height="36.3441" rx="12.5" ry="12.5" style="stroke:#181818;stroke-width:0.5;" width="211.7134" x="131.9857" y="791.7186"/><text fill="#000000" font-family="sans-serif" font-size="12" lengthAdjust="spacing" textLength="191.7134" x="141.9857" y="814.5467">UI.showArchivedNote(targetNote)</text><rect fill="#F1F1F1" height="36.3441" rx="12.5" ry="12.5" style="stroke:#181818;stroke-width:0.5;" width="226.9655" x="363.6991" y="791.7186"/><text fill="#000000" font-family="sans-serif" font-size="12" lengthAdjust="spacing" textLength="206.9655" x="373.6991" y="814.5467">UI.showUnarchivedNote(targetNote)</text><polygon fill="#F1F1F1" points="357.5121,834.0627,369.5121,846.0627,357.5121,858.0627,345.5121,846.0627,357.5121,834.0627" style="stroke:#181818;stroke-width:0.5;"/><ellipse cx="357.5121" cy="889.0627" fill="none" rx="11" ry="11" style="stroke:#222222;stroke-width:1;"/><ellipse cx="357.5121" cy="889.0627" fill="#222222" rx="6" ry="6" style="stroke:#222222;stroke-width:1;"/><line style="stroke:#181818;stroke-width:1;" x1="357.5121" x2="357.5121" y1="30" y2="50"/><polygon fill="#181818" points="353.5121,40,357.5121,50,361.5121,40,357.5121,44" style="stroke:#181818;stroke-width:1;"/><line style="stroke:#181818;stroke-width:1;" x1="357.5121" x2="357.5121" y1="86.3441" y2="106.3441"/><polygon fill="#181818" points="353.5121,96.3441,357.5121,106.3441,361.5121,96.3441,357.5121,100.3441" style="stroke:#181818;stroke-width:1;"/><line style="stroke:#181818;stroke-width:1;" x1="357.5121" x2="357.5121" y1="248.5233" y2="275.8512"/><polygon fill="#181818" points="353.5121,265.8512,357.5121,275.8512,361.5121,265.8512,357.5121,269.8512" style="stroke:#181818;stroke-width:1;"/><line style="stroke:#181818;stroke-width:1;" x1="357.5121" x2="357.5121" y1="186.6882" y2="212.1792"/><polygon fill="#181818" points="353.5121,202.1792,357.5121,212.1792,361.5121,202.1792,357.5121,206.1792" style="stroke:#181818;stroke-width:1;"/><line style="stroke:#181818;stroke-width:1;" x1="411.4658" x2="464.2368" y1="174.6882" y2="174.6882"/><polygon fill="#181818" points="460.2368,245.8512,464.2368,255.8512,468.2368,245.8512,464.2368,249.8512" style="stroke:#181818;stroke-width:1;"/><line style="stroke:#181818;stroke-width:1;" x1="464.2368" x2="464.2368" y1="174.6882" y2="319.8512"/><line style="stroke:#181818;stroke-width:1;" x1="464.2368" x2="357.5121" y1="319.8512" y2="319.8512"/><line style="stroke:#181818;stroke-width:1;" x1="357.5121" x2="357.5121" y1="319.8512" y2="339.8512"/><polygon fill="#181818" points="353.5121,329.8512,357.5121,339.8512,361.5121,329.8512,357.5121,333.8512" style="stroke:#181818;stroke-width:1;"/><line style="stroke:#181818;stroke-width:1;" x1="357.5121" x2="357.5121" y1="142.6882" y2="162.6882"/><polygon fill="#181818" points="353.5121,152.6882,357.5121,162.6882,361.5121,152.6882,357.5121,156.6882" style="stroke:#181818;stroke-width:1;"/><line style="stroke:#181818;stroke-width:1;" x1="174.1031" x2="174.1031" y1="459.6863" y2="494.6863"/><polygon fill="#181818" points="170.1031,484.6863,174.1031,494.6863,178.1031,484.6863,174.1031,488.6863" style="stroke:#181818;stroke-width:1;"/><line style="stroke:#181818;stroke-width:1;" x1="174.1031" x2="174.1031" y1="397.8512" y2="423.3422"/><polygon fill="#181818" points="170.1031,413.3422,174.1031,423.3422,178.1031,413.3422,174.1031,417.3422" style="stroke:#181818;stroke-width:1;"/><line style="stroke:#181818;stroke-width:1;" x1="250.6726" x2="347.2062" y1="385.8512" y2="385.8512"/><polygon fill="#181818" points="343.2062,457.0142,347.2062,467.0142,351.2062,457.0142,347.2062,461.0142" style="stroke:#181818;stroke-width:1;"/><line style="stroke:#181818;stroke-width:1;" x1="347.2062" x2="347.2062" y1="385.8512" y2="538.6863"/><line style="stroke:#181818;stroke-width:1;" x1="347.2062" x2="174.1031" y1="538.6863" y2="538.6863"/><line style="stroke:#181818;stroke-width:1;" x1="174.1031" x2="174.1031" y1="538.6863" y2="556.6863"/><line style="stroke:#181818;stroke-width:1;" x1="174.1031" x2="345.5121" y1="556.6863" y2="556.6863"/><polygon fill="#181818" points="335.5121,552.6863,345.5121,556.6863,335.5121,560.6863,339.5121,556.6863" style="stroke:#181818;stroke-width:1;"/><line style="stroke:#181818;stroke-width:1;" x1="540.9212" x2="540.9212" y1="459.6863" y2="494.6863"/><polygon fill="#181818" points="536.9212,484.6863,540.9212,494.6863,544.9212,484.6863,540.9212,488.6863" style="stroke:#181818;stroke-width:1;"/><line style="stroke:#181818;stroke-width:1;" x1="540.9212" x2="540.9212" y1="397.8512" y2="423.3422"/><polygon fill="#181818" points="536.9212,413.3422,540.9212,423.3422,544.9212,413.3422,540.9212,417.3422" style="stroke:#181818;stroke-width:1;"/><line style="stroke:#181818;stroke-width:1;" x1="607.0518" x2="702.6362" y1="385.8512" y2="385.8512"/><polygon fill="#181818" points="698.6362,466.0142,702.6362,476.0142,706.6362,466.0142,702.6362,470.0142" style="stroke:#181818;stroke-width:1;"/><line style="stroke:#181818;stroke-width:1;" x1="702.6362" x2="702.6362" y1="385.8512" y2="556.6863"/><line style="stroke:#181818;stroke-width:1;" x1="702.6362" x2="369.5121" y1="556.6863" y2="556.6863"/><polygon fill="#181818" points="379.5121,552.6863,369.5121,556.6863,379.5121,560.6863,375.5121,556.6863" style="stroke:#181818;stroke-width:1;"/><line style="stroke:#181818;stroke-width:1;" x1="306.4239" x2="174.1031" y1="351.8512" y2="351.8512"/><line style="stroke:#181818;stroke-width:1;" x1="174.1031" x2="174.1031" y1="351.8512" y2="373.8512"/><polygon fill="#181818" points="170.1031,363.8512,174.1031,373.8512,178.1031,363.8512,174.1031,367.8512" style="stroke:#181818;stroke-width:1;"/><line style="stroke:#181818;stroke-width:1;" x1="408.6004" x2="540.9212" y1="351.8512" y2="351.8512"/><line style="stroke:#181818;stroke-width:1;" x1="540.9212" x2="540.9212" y1="351.8512" y2="373.8512"/><polygon fill="#181818" points="536.9212,363.8512,540.9212,373.8512,544.9212,363.8512,540.9212,367.8512" style="stroke:#181818;stroke-width:1;"/><line style="stroke:#181818;stroke-width:1;" x1="357.5121" x2="357.5121" y1="568.6863" y2="588.6863"/><polygon fill="#181818" points="353.5121,578.6863,357.5121,588.6863,361.5121,578.6863,357.5121,582.6863" style="stroke:#181818;stroke-width:1;"/><line style="stroke:#181818;stroke-width:1;" x1="357.5121" x2="357.5121" y1="625.0304" y2="645.0304"/><polygon fill="#181818" points="353.5121,635.0304,357.5121,645.0304,361.5121,635.0304,357.5121,639.0304" style="stroke:#181818;stroke-width:1;"/><line style="stroke:#181818;stroke-width:1;" x1="357.5121" x2="357.5121" y1="681.3745" y2="701.3745"/><polygon fill="#181818" points="353.5121,691.3745,357.5121,701.3745,361.5121,691.3745,357.5121,695.3745" style="stroke:#181818;stroke-width:1;"/><line style="stroke:#181818;stroke-width:1;" x1="306.4239" x2="237.8424" y1="769.7186" y2="769.7186"/><line style="stroke:#181818;stroke-width:1;" x1="237.8424" x2="237.8424" y1="769.7186" y2="791.7186"/><polygon fill="#181818" points="233.8424,781.7186,237.8424,791.7186,241.8424,781.7186,237.8424,785.7186" style="stroke:#181818;stroke-width:1;"/><line style="stroke:#181818;stroke-width:1;" x1="408.6004" x2="477.1819" y1="769.7186" y2="769.7186"/><line style="stroke:#181818;stroke-width:1;" x1="477.1819" x2="477.1819" y1="769.7186" y2="791.7186"/><polygon fill="#181818" points="473.1819,781.7186,477.1819,791.7186,481.1819,781.7186,477.1819,785.7186" style="stroke:#181818;stroke-width:1;"/><line style="stroke:#181818;stroke-width:1;" x1="237.8424" x2="237.8424" y1="828.0627" y2="846.0627"/><line style="stroke:#181818;stroke-width:1;" x1="237.8424" x2="345.5121" y1="846.0627" y2="846.0627"/><polygon fill="#181818" points="335.5121,842.0627,345.5121,846.0627,335.5121,850.0627,339.5121,846.0627" style="stroke:#181818;stroke-width:1;"/><line style="stroke:#181818;stroke-width:1;" x1="477.1819" x2="477.1819" y1="828.0627" y2="846.0627"/><line style="stroke:#181818;stroke-width:1;" x1="477.1819" x2="369.5121" y1="846.0627" y2="846.0627"/><polygon fill="#181818" points="379.5121,842.0627,369.5121,846.0627,379.5121,850.0627,375.5121,846.0627" style="stroke:#181818;stroke-width:1;"/><line style="stroke:#181818;stroke-width:1;" x1="357.5121" x2="357.5121" y1="737.7186" y2="757.7186"/><polygon fill="#181818" points="353.5121,747.7186,357.5121,757.7186,361.5121,747.7186,357.5121,751.7186" style="stroke:#181818;stroke-width:1;"/><line style="stroke:#181818;stroke-width:1;" x1="357.5121" x2="357.5121" y1="858.0627" y2="878.0627"/><polygon fill="#181818" points="353.5121,868.0627,357.5121,878.0627,361.5121,868.0627,357.5121,872.0627" style="stroke:#181818;stroke-width:1;"/><!--SRC=[fP9DReCm48NtFiKeAv2g700MLQiq4ejcqPG3JF408naROHFAxMix2QMfgYowyizxpFiOZtKuE96zKKLy8j36KI41jGJRcb79fw5glP0BaUtPtmO3i8wh1SNMmSSCnIuNN4Do2AgNe3QZbeyfk9Oq93FPL01ax-rW9ZYOODi7nyjdHRrZetClMsTwGSeI9DgaWhJaMiIoFr1kgowvR07LG2XdmBFr5y72KEWJAfQ5xaUtG42oYOLkgspIF7uR0G6-4Vq-GgvlrZYX4_z3MLUuZt7kMFPg_4lsxMovGWKrAuBHicxWwCo03MqxRmZbdybDH7h70rLUOhAvoCfUea-EyHqvz2U4v0e1jSBcuSfqm8xIC1j7l0oFXHFZ4cGnZixTDypAOkiDqqMM8JpnazcG2riViVxRgxlK-BV_t8lGgoy0]--></g></svg>