<svg xmlns="http://www.w3.org/2000/svg" xmlns:xlink="http://www.w3.org/1999/xlink" contentStyleType="text/css" data-diagram-type="SEQUENCE" height="619px" preserveAspectRatio="none" style="width:1039px;height:619px;background:#FFFFFF;" version="1.1" viewBox="0 0 1039 619" width="1039px" zoomAndPan="magnify"><defs/><g><g><title>.Zettel</title><rect fill="#FFFFFF" height="476.8661" style="stroke:#181818;stroke-width:1;" width="10" x="245.6292" y="117.7739"/></g><g><title>.UI</title><rect fill="#FFFFFF" height="31.706" style="stroke:#181818;stroke-width:1;" width="10" x="447.4593" y="149.4799"/></g><g><title>.UI</title><rect fill="#FFFFFF" height="31.706" style="stroke:#181818;stroke-width:1;" width="10" x="447.4593" y="510.228"/></g><g><title>.Parser</title><rect fill="#FFFFFF" height="375.7481" style="stroke:#181818;stroke-width:1;" width="10" x="503.9462" y="212.892"/></g><g><title>.Command</title><rect fill="#FFFFFF" height="158.5301" style="stroke:#181818;stroke-width:1;" width="10" x="837.3481" y="415.11"/></g><g><title>.Storage</title><rect fill="#FFFFFF" height="31.706" style="stroke:#181818;stroke-width:1;" width="10" x="982.6283" y="446.816"/></g><rect fill="none" height="322.0421" style="stroke:#000000;stroke-width:1.5;" width="819.1869" x="212.9932" y="259.598"/><g><title>User</title><rect fill="#000000" fill-opacity="0.00000" height="528.5721" width="8" x="19.3089" y="84.0679"/><line style="stroke:#181818;stroke-width:0.5;stroke-dasharray:5,5;" x1="23" x2="23" y1="84.0679" y2="612.6401"/></g><g><title>.Zettel</title><rect fill="#000000" fill-opacity="0.00000" height="528.5721" width="8" x="246.6292" y="84.0679"/><line style="stroke:#181818;stroke-width:0.5;stroke-dasharray:5,5;" x1="249.9932" x2="249.9932" y1="84.0679" y2="612.6401"/></g><g><title>.UI</title><rect fill="#000000" fill-opacity="0.00000" height="528.5721" width="8" x="448.4593" y="84.0679"/><line style="stroke:#181818;stroke-width:0.5;stroke-dasharray:5,5;" x1="452.0933" x2="452.0933" y1="84.0679" y2="612.6401"/></g><g><title>.Parser</title><rect fill="#000000" fill-opacity="0.00000" height="528.5721" width="8" x="504.9462" y="84.0679"/><line style="stroke:#181818;stroke-width:0.5;stroke-dasharray:5,5;" x1="508.8253" x2="508.8253" y1="84.0679" y2="612.6401"/></g><g><title>.Validator</title><rect fill="#000000" fill-opacity="0.00000" height="528.5721" width="8" x="746.6654" y="84.0679"/><line style="stroke:#181818;stroke-width:0.5;stroke-dasharray:5,5;" x1="750.1655" x2="750.1655" y1="84.0679" y2="612.6401"/></g><g><title>.Command</title><rect fill="#000000" fill-opacity="0.00000" height="528.5721" width="8" x="838.3481" y="84.0679"/><line style="stroke:#181818;stroke-width:0.5;stroke-dasharray:5,5;" x1="842.1653" x2="842.1653" y1="84.0679" y2="612.6401"/></g><g><title>.Storage</title><rect fill="#000000" fill-opacity="0.00000" height="528.5721" width="8" x="983.6283" y="84.0679"/><line style="stroke:#181818;stroke-width:0.5;stroke-dasharray:5,5;" x1="987.0763" x2="987.0763" y1="84.0679" y2="612.6401"/></g><g class="participant participant-head" data-participant="User"><text fill="#000000" font-family="sans-serif" font-size="14" lengthAdjust="spacing" textLength="30.6179" x="5" y="79.9659">User</text><ellipse cx="23.3089" cy="13.5" fill="#E2E2F0" rx="8" ry="8" style="stroke:#181818;stroke-width:0.5;"/><path d="M23.3089,21.5 L23.3089,48.5 M10.3089,29.5 L36.3089,29.5 M23.3089,48.5 L10.3089,63.5 M23.3089,48.5 L36.3089,63.5" fill="none" style="stroke:#181818;stroke-width:0.5;"/></g><g class="participant participant-head" data-participant=".Zettel"><rect fill="#E2E2F0" height="33.0679" rx="2.5" ry="2.5" style="stroke:#181818;stroke-width:0.5;" width="55.2718" x="222.9932" y="50"/><text fill="#000000" font-family="sans-serif" font-size="14" lengthAdjust="spacing" textLength="41.2718" x="229.9932" y="71.9659">:Zettel</text></g><g class="participant participant-head" data-participant=".UI"><rect fill="#E2E2F0" height="33.0679" rx="2.5" ry="2.5" style="stroke:#181818;stroke-width:0.5;" width="32.7319" x="436.0933" y="50"/><text fill="#000000" font-family="sans-serif" font-size="14" lengthAdjust="spacing" textLength="18.7319" x="443.0933" y="71.9659">:UI</text></g><g class="participant participant-head" data-participant=".Parser"><rect fill="#E2E2F0" height="33.0679" rx="2.5" ry="2.5" style="stroke:#181818;stroke-width:0.5;" width="60.2418" x="478.8253" y="50"/><text fill="#000000" font-family="sans-serif" font-size="14" lengthAdjust="spacing" textLength="46.2418" x="485.8253" y="71.9659">:Parser</text></g><g class="participant participant-head" data-participant=".Validator"><rect fill="#E2E2F0" height="33.0679" rx="2.5" ry="2.5" style="stroke:#181818;stroke-width:0.5;" width="76.9998" x="712.1655" y="50"/><text fill="#000000" font-family="sans-serif" font-size="14" lengthAdjust="spacing" textLength="62.9998" x="719.1655" y="71.9659">:Validator</text></g><g class="participant participant-head" data-participant=".Command"><rect fill="#E2E2F0" height="33.0679" rx="2.5" ry="2.5" style="stroke:#181818;stroke-width:0.5;" width="86.3657" x="799.1653" y="50"/><text fill="#000000" font-family="sans-serif" font-size="14" lengthAdjust="spacing" textLength="72.3657" x="806.1653" y="71.9659">:Command</text></g><g class="participant participant-head" data-participant=".Storage"><rect fill="#E2E2F0" height="33.0679" rx="2.5" ry="2.5" style="stroke:#181818;stroke-width:0.5;" width="69.1038" x="953.0763" y="50"/><text fill="#000000" font-family="sans-serif" font-size="14" lengthAdjust="spacing" textLength="55.1038" x="960.0763" y="71.9659">:Storage</text></g><g><title>.Zettel</title><rect fill="#FFFFFF" height="476.8661" style="stroke:#181818;stroke-width:1;" width="10" x="245.6292" y="117.7739"/></g><g><title>.UI</title><rect fill="#FFFFFF" height="31.706" style="stroke:#181818;stroke-width:1;" width="10" x="447.4593" y="149.4799"/></g><g><title>.UI</title><rect fill="#FFFFFF" height="31.706" style="stroke:#181818;stroke-width:1;" width="10" x="447.4593" y="510.228"/></g><g><title>.Parser</title><rect fill="#FFFFFF" height="375.7481" style="stroke:#181818;stroke-width:1;" width="10" x="503.9462" y="212.892"/></g><g><title>.Command</title><rect fill="#FFFFFF" height="158.5301" style="stroke:#181818;stroke-width:1;" width="10" x="837.3481" y="415.11"/></g><g><title>.Storage</title><rect fill="#FFFFFF" height="31.706" style="stroke:#181818;stroke-width:1;" width="10" x="982.6283" y="446.816"/></g><g class="message" data-participant-1="User" data-participant-2=".Zettel"><polygon fill="#181818" points="233.6292,113.7739,243.6292,117.7739,233.6292,121.7739,237.6292,117.7739" style="stroke:#181818;stroke-width:1;"/><line style="stroke:#181818;stroke-width:1;" x1="23.3089" x2="239.6292" y1="117.7739" y2="117.7739"/><text fill="#000000" font-family="sans-serif" font-size="13" lengthAdjust="spacing" textLength="203.3202" x="30.3089" y="111.9649">input "new -t MyNote -b Content"</text></g><g class="message" data-participant-1=".Zettel" data-participant-2=".UI"><polygon fill="#181818" points="435.4593,145.4799,445.4593,149.4799,435.4593,153.4799,439.4593,149.4799" style="stroke:#181818;stroke-width:1;"/><line style="stroke:#181818;stroke-width:1;" x1="255.6292" x2="441.4593" y1="149.4799" y2="149.4799"/><text fill="#000000" font-family="sans-serif" font-size="13" lengthAdjust="spacing" textLength="99.5021" x="262.6292" y="143.6709">readCommand()</text></g><g class="message" data-participant-1=".UI" data-participant-2=".Zettel"><polygon fill="#181818" points="266.6292,177.186,256.6292,181.186,266.6292,185.186,262.6292,181.186" style="stroke:#181818;stroke-width:1;"/><line style="stroke:#181818;stroke-width:1;stroke-dasharray:2,2;" x1="260.6292" x2="451.4593" y1="181.186" y2="181.186"/><text fill="#000000" font-family="sans-serif" font-size="13" lengthAdjust="spacing" textLength="167.8302" x="272.6292" y="175.377">"new -t MyNote -b Content"</text></g><g class="message" data-participant-1=".Zettel" data-participant-2=".Parser"><polygon fill="#181818" points="491.9462,208.892,501.9462,212.892,491.9462,216.892,495.9462,212.892" style="stroke:#181818;stroke-width:1;"/><line style="stroke:#181818;stroke-width:1;" x1="255.6292" x2="497.9462" y1="212.892" y2="212.892"/><text fill="#000000" font-family="sans-serif" font-size="13" lengthAdjust="spacing" textLength="102.1411" x="262.6292" y="207.083">parse(userInput)</text></g><g class="message" data-participant-1=".Parser" data-participant-2=".Validator"><polygon fill="#181818" points="738.6654,240.598,748.6654,244.598,738.6654,248.598,742.6654,244.598" style="stroke:#181818;stroke-width:1;"/><line style="stroke:#181818;stroke-width:1;" x1="513.9462" x2="744.6654" y1="244.598" y2="244.598"/><text fill="#000000" font-family="sans-serif" font-size="13" lengthAdjust="spacing" textLength="212.7192" x="520.9462" y="238.789">validateCommandInput(userInput)</text></g><path d="M212.9932,259.598 L275.4522,259.598 L275.4522,269.304 L265.4522,279.304 L212.9932,279.304 L212.9932,259.598" fill="#EEEEEE" style="stroke:#000000;stroke-width:1.5;"/><rect fill="none" height="322.0421" style="stroke:#000000;stroke-width:1.5;" width="819.1869" x="212.9932" y="259.598"/><text fill="#000000" font-family="sans-serif" font-size="13" font-weight="bold" lengthAdjust="spacing" textLength="17.459" x="227.9932" y="274.495">alt</text><text fill="#000000" font-family="sans-serif" font-size="11" font-weight="bold" lengthAdjust="spacing" textLength="89.4954" x="290.4522" y="273.3569">[Validation fails]</text><g class="message" data-participant-1=".Validator" data-participant-2=".Zettel"><polygon fill="#181818" points="266.6292,299.01,256.6292,303.01,266.6292,307.01,262.6292,303.01" style="stroke:#181818;stroke-width:1;"/><line style="stroke:#181818;stroke-width:1;stroke-dasharray:2,2;" x1="260.6292" x2="749.6654" y1="303.01" y2="303.01"/><text fill="#000000" font-family="sans-serif" font-size="13" lengthAdjust="spacing" textLength="140.2441" x="272.6292" y="297.201">throws ZettelException</text></g><g class="message" data-participant-1=".Zettel" data-participant-2=".UI"><polygon fill="#181818" points="440.4593,330.716,450.4593,334.716,440.4593,338.716,444.4593,334.716" style="stroke:#181818;stroke-width:1;"/><line style="stroke:#181818;stroke-width:1;" x1="255.6292" x2="446.4593" y1="334.716" y2="334.716"/><text fill="#000000" font-family="sans-serif" font-size="13" lengthAdjust="spacing" textLength="71.3441" x="262.6292" y="328.907">showError()</text></g><line style="stroke:#000000;stroke-width:1;stroke-dasharray:2,2;" x1="212.9932" x2="1032.1802" y1="343.716" y2="343.716"/><text fill="#000000" font-family="sans-serif" font-size="11" font-weight="bold" lengthAdjust="spacing" textLength="102.9263" x="217.9932" y="355.475">[Validation passes]</text><g class="message" data-participant-1=".Parser" data-participant-2=".Zettel"><polygon fill="#181818" points="266.6292,379.404,256.6292,383.404,266.6292,387.404,262.6292,383.404" style="stroke:#181818;stroke-width:1;"/><line style="stroke:#181818;stroke-width:1;stroke-dasharray:2,2;" x1="260.6292" x2="502.9462" y1="383.404" y2="383.404"/><text fill="#000000" font-family="sans-serif" font-size="13" lengthAdjust="spacing" textLength="120.9131" x="272.6292" y="377.595">NewNoteCommand</text></g><g class="message" data-participant-1=".Zettel" data-participant-2=".Command"><polygon fill="#181818" points="825.3481,411.11,835.3481,415.11,825.3481,419.11,829.3481,415.11" style="stroke:#181818;stroke-width:1;"/><line style="stroke:#181818;stroke-width:1;" x1="255.6292" x2="831.3481" y1="415.11" y2="415.11"/><text fill="#000000" font-family="sans-serif" font-size="13" lengthAdjust="spacing" textLength="194.7532" x="262.6292" y="409.301">execute(notes, tags, ui, storage)</text></g><g class="message" data-participant-1=".Command" data-participant-2=".Storage"><polygon fill="#181818" points="970.6283,442.816,980.6283,446.816,970.6283,450.816,974.6283,446.816" style="stroke:#181818;stroke-width:1;"/><line style="stroke:#181818;stroke-width:1;" x1="847.3481" x2="976.6283" y1="446.816" y2="446.816"/><text fill="#000000" font-family="sans-serif" font-size="13" lengthAdjust="spacing" textLength="54.5871" x="854.3481" y="441.007">add note</text></g><g class="message" data-participant-1=".Storage" data-participant-2=".Command"><polygon fill="#181818" points="858.3481,474.522,848.3481,478.522,858.3481,482.522,854.3481,478.522" style="stroke:#181818;stroke-width:1;"/><line style="stroke:#181818;stroke-width:1;stroke-dasharray:2,2;" x1="852.3481" x2="986.6283" y1="478.522" y2="478.522"/><text fill="#000000" font-family="sans-serif" font-size="13" lengthAdjust="spacing" textLength="111.2801" x="864.3481" y="472.713">modification done</text></g><g class="message" data-participant-1=".Command" data-participant-2=".UI"><polygon fill="#181818" points="468.4593,506.228,458.4593,510.228,468.4593,514.228,464.4593,510.228" style="stroke:#181818;stroke-width:1;"/><line style="stroke:#181818;stroke-width:1;" x1="462.4593" x2="836.3481" y1="510.228" y2="510.228"/><text fill="#000000" font-family="sans-serif" font-size="13" lengthAdjust="spacing" textLength="109.5381" x="474.4593" y="504.419">showAddedNote()</text></g><g class="message" data-participant-1=".UI" data-participant-2=".Command"><polygon fill="#181818" points="825.3481,537.934,835.3481,541.934,825.3481,545.934,829.3481,541.934" style="stroke:#181818;stroke-width:1;"/><line style="stroke:#181818;stroke-width:1;stroke-dasharray:2,2;" x1="452.4593" x2="831.3481" y1="541.934" y2="541.934"/><text fill="#000000" font-family="sans-serif" font-size="13" lengthAdjust="spacing" textLength="31.226" x="459.4593" y="536.125">done</text></g><g class="message" data-participant-1=".Command" data-participant-2=".Zettel"><polygon fill="#181818" points="266.6292,569.6401,256.6292,573.6401,266.6292,577.6401,262.6292,573.6401" style="stroke:#181818;stroke-width:1;"/><line style="stroke:#181818;stroke-width:1;stroke-dasharray:2,2;" x1="260.6292" x2="841.3481" y1="573.6401" y2="573.6401"/><text fill="#000000" font-family="sans-serif" font-size="13" lengthAdjust="spacing" textLength="120.1071" x="272.6292" y="567.831">execution complete</text></g><g class="message" data-participant-1=".Zettel" data-participant-2="User"><polygon fill="#181818" points="34.3089,590.6401,24.3089,594.6401,34.3089,598.6401,30.3089,594.6401" style="stroke:#181818;stroke-width:1;"/><line style="stroke:#181818;stroke-width:1;stroke-dasharray:2,2;" x1="28.3089" x2="249.6292" y1="594.6401" y2="594.6401"/></g><!--SRC=[VL91RiCW4BppYfLFZXH_m8TALPH33eqgLUcXDs8s2P835k0u_Nt1O6o8LHyiM9YPtM5kd25Sf3Hd-II4DaOgE6bKfAFAy8PtL1WewXyq1jiYgvuEUUMJAWlEgz-qvOnQwlnW9-ztAbXU_h9NwHKBGbmhKBtD7TJ0HTVRIm87g0ny_1wbGQZEi9F2e3256u8_g2tERSULvx9zrw2Gig1VRfOWDzNuXofL_aUJOKQGImPZQkZSekpjvk06IPGdzqXSUl3iNmqFlyRG-aYIqBK6mdqk1LmeRpK1-orfyidCJSb1Wz_ldmrs3XnWhzRfcnpsIabbZSDMurAmerhZf1YdIEMEE3W7mmXaJMTAHWtunAOtM0gBq5imz6h_FT-2zYdPZF25Yp5KWNVQU-8fMpLGni2HvlYOFW-Vjc68kR6xPFp26pysay8J9KcOWxpMIlJodJ5apf7oPHYN9O-T0pctiAuwvYyNJ5_0c-eQR-IzQz6iq4GVqRvHShB8QNmqntyQgydLSFu7]--></g></svg>