<svg xmlns="http://www.w3.org/2000/svg" xmlns:xlink="http://www.w3.org/1999/xlink" contentStyleType="text/css" data-diagram-type="DESCRIPTION" height="305px" preserveAspectRatio="none" style="width:322px;height:305px;background:#FFFFFF;" version="1.1" viewBox="0 0 322 305" width="322px" zoomAndPan="magnify"><defs/><g><!--cluster ZettelCLI--><g class="cluster" data-entity="ZettelCLI" data-source-line="5" data-uid="ent0003" id="cluster_ZettelCLI"><path d="M8.5,106.5 L72.8498,106.5 A3.75,3.75 0 0 1 75.3498,109 L82.3498,131.5679 L312.5,131.5679 A2.5,2.5 0 0 1 315,134.0679 L315,296 A2.5,2.5 0 0 1 312.5,298.5 L8.5,298.5 A2.5,2.5 0 0 1 6,296 L6,109 A2.5,2.5 0 0 1 8.5,106.5" fill="none" style="stroke:#000000;stroke-width:1.5;"/><line style="stroke:#000000;stroke-width:1.5;" x1="6" x2="82.3498" y1="131.5679" y2="131.5679"/><text fill="#000000" font-family="sans-serif" font-size="14" font-weight="bold" lengthAdjust="spacing" textLength="63.3498" x="10" y="123.4659">ZettelCLI</text></g><!--entity Zettel--><g class="entity" data-entity="Zettel" data-source-line="6" data-uid="ent0004" id="entity_Zettel"><rect fill="#F1F1F1" height="39.0679" rx="2.5" ry="2.5" style="stroke:#181818;stroke-width:0.5;" width="61.2718" x="167.5" y="144.5"/><text fill="#000000" font-family="sans-serif" font-size="14" lengthAdjust="spacing" textLength="41.2718" x="177.5" y="169.4659">:Zettel</text></g><!--entity UI--><g class="entity" data-entity="UI" data-source-line="7" data-uid="ent0005" id="entity_UI"><rect fill="#F1F1F1" height="39.0679" rx="2.5" ry="2.5" style="stroke:#181818;stroke-width:0.5;" width="38.7319" x="22.5" y="243.5"/><text fill="#000000" font-family="sans-serif" font-size="14" lengthAdjust="spacing" textLength="18.7319" x="32.5" y="268.4659">:UI</text></g><!--entity Parser--><g class="entity" data-entity="Parser" data-source-line="8" data-uid="ent0006" id="entity_Parser"><rect fill="#F1F1F1" height="39.0679" rx="2.5" ry="2.5" style="stroke:#181818;stroke-width:0.5;" width="66.2418" x="66" y="144.5"/><text fill="#000000" font-family="sans-serif" font-size="14" lengthAdjust="spacing" textLength="46.2418" x="76" y="169.4659">:Parser</text></g><!--entity Command--><g class="entity" data-entity="Command" data-source-line="9" data-uid="ent0007" id="entity_Command"><rect fill="#F1F1F1" height="39.0679" rx="2.5" ry="2.5" style="stroke:#181818;stroke-width:0.5;" width="92.3657" x="97" y="243.5"/><text fill="#000000" font-family="sans-serif" font-size="14" lengthAdjust="spacing" textLength="72.3657" x="107" y="268.4659">:Command</text></g><!--entity Storage--><g class="entity" data-entity="Storage" data-source-line="10" data-uid="ent0008" id="entity_Storage"><rect fill="#F1F1F1" height="39.0679" rx="2.5" ry="2.5" style="stroke:#181818;stroke-width:0.5;" width="75.1038" x="224.5" y="243.5"/><text fill="#000000" font-family="sans-serif" font-size="14" lengthAdjust="spacing" textLength="55.1038" x="234.5" y="268.4659">:Storage</text></g><!--entity User--><g class="entity" data-entity="User" data-source-line="2" data-uid="ent0002" id="entity_User"><ellipse cx="197.8089" cy="14" fill="#F1F1F1" rx="8" ry="8" style="stroke:#181818;stroke-width:0.5;"/><path d="M197.8089,22 L197.8089,49 M184.8089,30 L210.8089,30 M197.8089,49 L184.8089,64 M197.8089,49 L210.8089,64" fill="none" style="stroke:#181818;stroke-width:0.5;"/><text fill="#000000" font-family="sans-serif" font-size="14" lengthAdjust="spacing" textLength="30.6179" x="182.5" y="80.4659">User</text></g><!--link User to Zettel--><g class="link" data-entity-1="User" data-entity-2="Zettel" data-source-line="13" data-uid="lnk9" id="link_User_Zettel"><path d="M198,84.63 C198,104.74 198,122.39 198,138.41" fill="none" id="User-to-Zettel" style="stroke:#181818;stroke-width:1;"/><polygon fill="#181818" points="198,144.41,202,135.41,198,139.41,194,135.41,198,144.41" style="stroke:#181818;stroke-width:1;"/></g><!--reverse link Parser to Zettel--><g class="link" data-entity-1="Parser" data-entity-2="Zettel" data-source-line="14" data-uid="lnk11" id="link_Parser_Zettel"><path d="M138.26,164 C149.99,164 155.71,164 167.44,164" fill="none" id="Parser-backto-Zettel" style="stroke:#181818;stroke-width:1;"/><polygon fill="#181818" points="132.26,164,141.26,168,137.26,164,141.26,160,132.26,164" style="stroke:#181818;stroke-width:1;"/></g><!--link Parser to Command--><g class="link" data-entity-1="Parser" data-entity-2="Command" data-source-line="15" data-uid="lnk12" id="link_Parser_Command"><path d="M107.48,183.7 C115.28,200.88 124.2813,220.7359 132.0613,237.8859" fill="none" id="Parser-to-Command" style="stroke:#181818;stroke-width:1;"/><polygon fill="#181818" points="134.54,243.35,134.4646,233.5014,132.4744,238.7966,127.1792,236.8064,134.54,243.35" style="stroke:#181818;stroke-width:1;"/></g><!--link Zettel to Command--><g class="link" data-entity-1="Zettel" data-entity-2="Command" data-source-line="16" data-uid="lnk13" id="link_Zettel_Command"><path d="M187.4,183.7 C177.66,200.88 166.2608,220.9814 156.5308,238.1314" fill="none" id="Zettel-to-Command" style="stroke:#181818;stroke-width:1;"/><polygon fill="#181818" points="153.57,243.35,161.4902,237.4959,156.0373,239.0012,154.5321,233.5482,153.57,243.35" style="stroke:#181818;stroke-width:1;"/></g><!--link Command to Storage--><g class="link" data-entity-1="Command" data-entity-2="Storage" data-source-line="17" data-uid="lnk14" id="link_Command_Storage"><path d="M189.02,263 C200.8,263 206.59,263 218.37,263" fill="none" id="Command-to-Storage" style="stroke:#181818;stroke-width:1;"/><polygon fill="#181818" points="224.37,263,215.37,259,219.37,263,215.37,267,224.37,263" style="stroke:#181818;stroke-width:1;"/></g><!--reverse link UI to Command--><g class="link" data-entity-1="UI" data-entity-2="Command" data-source-line="18" data-uid="lnk16" id="link_UI_Command"><path d="M67.73,263 C79.47,263 85.22,263 96.97,263" fill="none" id="UI-backto-Command" style="stroke:#181818;stroke-width:1;"/><polygon fill="#181818" points="61.73,263,70.73,267,66.73,263,70.73,259,61.73,263" style="stroke:#181818;stroke-width:1;"/></g><!--SRC=[PO-z3W8X48JxVOeDFIzWONCLYOM9eR7RS8X63Wn7Oc5yTvUVCvT0ivFz1cOWasD2lTe402yoJt8MnTNcRFrqKW8_W7oIDPc2yymE3Gga5PiS75fLgjL0pfGugj8c1ySKbuN2N2rT3vuBT-QUrTCrV07ABr3EyHtaSQlM1aflRvctFRGDbBpf6VXtxdURaEdXxkL-Jok5ThG_hXN-0000]--></g></svg>