<svg xmlns="http://www.w3.org/2000/svg" xmlns:xlink="http://www.w3.org/1999/xlink" contentStyleType="text/css" data-diagram-type="SEQUENCE" height="746px" preserveAspectRatio="none" style="width:693px;height:746px;background:#FFFFFF;" version="1.1" viewBox="0 0 693 746" width="693px" zoomAndPan="magnify"><defs/><g><g><title>.Command</title><rect fill="#FFFFFF" height="662.1022" style="stroke:#181818;stroke-width:1;" width="10" x="68.1829" y="68.1358"/></g><g><title>..class..</title><rect fill="#FFFFFF" height="629.3962" style="stroke:#181818;stroke-width:1;" width="10" x="298.9771" y="91.8419"/></g><rect fill="none" height="51.412" style="stroke:#000000;stroke-width:1.5;" width="331.889" x="20" y="138.5479"/><rect fill="none" height="51.412" style="stroke:#000000;stroke-width:1.5;" width="331.889" x="20" y="235.6659"/><rect fill="none" height="262.63" style="stroke:#000000;stroke-width:1.5;" width="677.091" x="10" y="427.902"/><rect fill="none" height="163.512" style="stroke:#000000;stroke-width:1.5;" width="421.0258" x="256.0652" y="454.608"/><rect fill="none" height="51.412" style="stroke:#000000;stroke-width:1.5;" width="331.889" x="20" y="632.12"/><g><title>.Command</title><rect fill="#000000" fill-opacity="0.00000" height="681.1022" width="8" x="69.1829" y="58.1358"/><line style="stroke:#181818;stroke-width:0.5;stroke-dasharray:5,5;" x1="73" x2="73" y1="58.1358" y2="739.2381"/></g><g><title>..class..</title><rect fill="#000000" fill-opacity="0.00000" height="681.1022" width="8" x="299.9771" y="58.1358"/><line style="stroke:#181818;stroke-width:0.5;stroke-dasharray:5,5;" x1="303.0652" x2="303.0652" y1="58.1358" y2="739.2381"/></g><g><title>.System</title><rect fill="#000000" fill-opacity="0.00000" height="681.1022" width="8" x="551.9273" y="58.1358"/><line style="stroke:#181818;stroke-width:0.5;stroke-dasharray:5,5;" x1="555.2654" x2="555.2654" y1="58.1358" y2="739.2381"/></g><g><title>.Process</title><rect fill="#000000" fill-opacity="0.00000" height="681.1022" width="8" x="628.8401" y="58.1358"/><line style="stroke:#181818;stroke-width:0.5;stroke-dasharray:5,5;" x1="632.5892" x2="632.5892" y1="58.1358" y2="739.2381"/></g><g class="participant participant-head" data-participant="Command"><rect fill="#E2E2F0" height="33.0679" rx="2.5" ry="2.5" style="stroke:#181818;stroke-width:0.5;" width="86.3657" x="30" y="24.0679"/><text fill="#000000" font-family="sans-serif" font-size="14" lengthAdjust="spacing" textLength="72.3657" x="37" y="46.0339">:Command</text></g><g class="participant participant-head" data-participant="EditorUtil"><rect fill="#E2E2F0" height="52.1358" rx="2.5" ry="2.5" style="stroke:#181818;stroke-width:0.5;" width="75.8238" x="266.0652" y="5"/><text fill="#000000" font-family="sans-serif" font-size="14" lengthAdjust="spacing" textLength="45.8498" x="281.0521" y="26.9659">&#171;class&#187;</text><text fill="#000000" font-family="sans-serif" font-size="14" lengthAdjust="spacing" textLength="61.8238" x="273.0652" y="46.0339">EditorUtil</text></g><g class="participant participant-head" data-participant="System"><rect fill="#E2E2F0" height="33.0679" rx="2.5" ry="2.5" style="stroke:#181818;stroke-width:0.5;" width="65.3238" x="523.2654" y="24.0679"/><text fill="#000000" font-family="sans-serif" font-size="14" lengthAdjust="spacing" textLength="51.3238" x="530.2654" y="46.0339">:System</text></g><g class="participant participant-head" data-participant="Process"><rect fill="#E2E2F0" height="33.0679" rx="2.5" ry="2.5" style="stroke:#181818;stroke-width:0.5;" width="68.5018" x="598.5892" y="24.0679"/><text fill="#000000" font-family="sans-serif" font-size="14" lengthAdjust="spacing" textLength="54.5018" x="605.5892" y="46.0339">:Process</text></g><g><title>.Command</title><rect fill="#FFFFFF" height="662.1022" style="stroke:#181818;stroke-width:1;" width="10" x="68.1829" y="68.1358"/></g><g><title>..class..</title><rect fill="#FFFFFF" height="629.3962" style="stroke:#181818;stroke-width:1;" width="10" x="298.9771" y="91.8419"/></g><g class="message" data-participant-1="Command" data-participant-2="EditorUtil"><polygon fill="#181818" points="286.9771,87.8419,296.9771,91.8419,286.9771,95.8419,290.9771,91.8419" style="stroke:#181818;stroke-width:1;"/><line style="stroke:#181818;stroke-width:1;" x1="78.1829" x2="292.9771" y1="91.8419" y2="91.8419"/><text fill="#000000" font-family="sans-serif" font-size="13" lengthAdjust="spacing" textLength="134.3681" x="85.1829" y="86.0328">openInEditor(filePath)</text></g><g class="message" data-participant-1="EditorUtil" data-participant-2="System"><polygon fill="#181818" points="543.9273,119.5479,553.9273,123.5479,543.9273,127.5479,547.9273,123.5479" style="stroke:#181818;stroke-width:1;"/><line style="stroke:#181818;stroke-width:1;" x1="308.9771" x2="549.9273" y1="123.5479" y2="123.5479"/><text fill="#000000" font-family="sans-serif" font-size="13" lengthAdjust="spacing" textLength="64.5061" x="315.9771" y="117.7389">file.exists()</text></g><path d="M20,138.5479 L86.918,138.5479 L86.918,148.2539 L76.918,158.2539 L20,158.2539 L20,138.5479" fill="#EEEEEE" style="stroke:#000000;stroke-width:1.5;"/><rect fill="none" height="51.412" style="stroke:#000000;stroke-width:1.5;" width="331.889" x="20" y="138.5479"/><text fill="#000000" font-family="sans-serif" font-size="13" font-weight="bold" lengthAdjust="spacing" textLength="21.918" x="35" y="153.4449">opt</text><text fill="#000000" font-family="sans-serif" font-size="11" font-weight="bold" lengthAdjust="spacing" textLength="72.0275" x="101.918" y="152.3068">[File missing]</text><g class="message" data-participant-1="EditorUtil" data-participant-2="Command"><polygon fill="#181818" points="89.1829,177.9599,79.1829,181.9599,89.1829,185.9599,85.1829,181.9599" style="stroke:#181818;stroke-width:1;"/><line style="stroke:#181818;stroke-width:1;stroke-dasharray:2,2;" x1="83.1829" x2="297.9771" y1="181.9599" y2="181.9599"/><text fill="#000000" font-family="sans-serif" font-size="13" lengthAdjust="spacing" textLength="185.3672" x="95.1829" y="176.1509">throw NoNoteFoundException</text></g><g class="message" data-participant-1="EditorUtil" data-participant-2="System"><polygon fill="#181818" points="543.9273,216.6659,553.9273,220.6659,543.9273,224.6659,547.9273,220.6659" style="stroke:#181818;stroke-width:1;"/><line style="stroke:#181818;stroke-width:1;" x1="308.9771" x2="549.9273" y1="220.6659" y2="220.6659"/><text fill="#000000" font-family="sans-serif" font-size="13" lengthAdjust="spacing" textLength="102.3751" x="315.9771" y="214.8569">System.console()</text></g><path d="M20,235.6659 L86.918,235.6659 L86.918,245.3719 L76.918,255.3719 L20,255.3719 L20,235.6659" fill="#EEEEEE" style="stroke:#000000;stroke-width:1.5;"/><rect fill="none" height="51.412" style="stroke:#000000;stroke-width:1.5;" width="331.889" x="20" y="235.6659"/><text fill="#000000" font-family="sans-serif" font-size="13" font-weight="bold" lengthAdjust="spacing" textLength="21.918" x="35" y="250.5629">opt</text><text fill="#000000" font-family="sans-serif" font-size="11" font-weight="bold" lengthAdjust="spacing" textLength="67.7155" x="101.918" y="249.4248">[No console]</text><g class="message" data-participant-1="EditorUtil" data-participant-2="Command"><polygon fill="#181818" points="89.1829,275.0779,79.1829,279.0779,89.1829,283.0779,85.1829,279.0779" style="stroke:#181818;stroke-width:1;"/><line style="stroke:#181818;stroke-width:1;stroke-dasharray:2,2;" x1="83.1829" x2="297.9771" y1="279.0779" y2="279.0779"/><text fill="#000000" font-family="sans-serif" font-size="13" lengthAdjust="spacing" textLength="196.7942" x="95.1829" y="273.2689">throw EditorNotFoundException</text></g><g class="message" data-participant-1="EditorUtil" data-participant-2="System"><polygon fill="#181818" points="543.9273,313.784,553.9273,317.784,543.9273,321.784,547.9273,317.784" style="stroke:#181818;stroke-width:1;"/><line style="stroke:#181818;stroke-width:1;" x1="308.9771" x2="549.9273" y1="317.784" y2="317.784"/><text fill="#000000" font-family="sans-serif" font-size="13" lengthAdjust="spacing" textLength="222.9502" x="315.9771" y="311.975">getenv("VISUAL") / getenv("EDITOR")</text></g><g class="message" data-participant-1="EditorUtil" data-participant-2="System"><polygon fill="#181818" points="543.9273,345.49,553.9273,349.49,543.9273,353.49,547.9273,349.49" style="stroke:#181818;stroke-width:1;"/><line style="stroke:#181818;stroke-width:1;" x1="308.9771" x2="549.9273" y1="349.49" y2="349.49"/><text fill="#000000" font-family="sans-serif" font-size="13" lengthAdjust="spacing" textLength="143.9361" x="315.9771" y="343.681">getProperty("os.name")</text></g><g class="message" data-participant-1="EditorUtil" data-participant-2="Process"><polygon fill="#181818" points="620.8401,377.196,630.8401,381.196,620.8401,385.196,624.8401,381.196" style="stroke:#181818;stroke-width:1;"/><line style="stroke:#181818;stroke-width:1;" x1="308.9771" x2="626.8401" y1="381.196" y2="381.196"/><text fill="#000000" font-family="sans-serif" font-size="13" lengthAdjust="spacing" textLength="167.4272" x="315.9771" y="375.387">tryLaunchEditor(editor, file)</text></g><g class="message" data-participant-1="Process" data-participant-2="EditorUtil"><polygon fill="#181818" points="319.9771,408.902,309.9771,412.902,319.9771,416.902,315.9771,412.902" style="stroke:#181818;stroke-width:1;"/><line style="stroke:#181818;stroke-width:1;stroke-dasharray:2,2;" x1="313.9771" x2="631.8401" y1="412.902" y2="412.902"/><text fill="#000000" font-family="sans-serif" font-size="13" lengthAdjust="spacing" textLength="53.664" x="325.9771" y="407.093">exitCode</text></g><path d="M10,427.902 L76.918,427.902 L76.918,437.608 L66.918,447.608 L10,447.608 L10,427.902" fill="#EEEEEE" style="stroke:#000000;stroke-width:1.5;"/><rect fill="none" height="262.63" style="stroke:#000000;stroke-width:1.5;" width="677.091" x="10" y="427.902"/><text fill="#000000" font-family="sans-serif" font-size="13" font-weight="bold" lengthAdjust="spacing" textLength="21.918" x="25" y="442.799">opt</text><text fill="#000000" font-family="sans-serif" font-size="11" font-weight="bold" lengthAdjust="spacing" textLength="212.4085" x="91.918" y="441.6609">[Launch failed, try OS-specific fallback]</text><path d="M256.0652,454.608 L318.5242,454.608 L318.5242,464.314 L308.5242,474.314 L256.0652,474.314 L256.0652,454.608" fill="#EEEEEE" style="stroke:#000000;stroke-width:1.5;"/><rect fill="none" height="163.512" style="stroke:#000000;stroke-width:1.5;" width="421.0258" x="256.0652" y="454.608"/><text fill="#000000" font-family="sans-serif" font-size="13" font-weight="bold" lengthAdjust="spacing" textLength="17.459" x="271.0652" y="469.505">alt</text><text fill="#000000" font-family="sans-serif" font-size="11" font-weight="bold" lengthAdjust="spacing" textLength="57.1556" x="333.5242" y="468.3669">[Windows]</text><g class="message" data-participant-1="EditorUtil" data-participant-2="Process"><polygon fill="#181818" points="620.8401,494.0201,630.8401,498.0201,620.8401,502.0201,624.8401,498.0201" style="stroke:#181818;stroke-width:1;"/><line style="stroke:#181818;stroke-width:1;" x1="308.9771" x2="626.8401" y1="498.0201" y2="498.0201"/><text fill="#000000" font-family="sans-serif" font-size="13" lengthAdjust="spacing" textLength="217.6592" x="315.9771" y="492.2111">tryLaunchEditor("notepad.exe", file)</text></g><g class="message" data-participant-1="Process" data-participant-2="EditorUtil"><polygon fill="#181818" points="319.9771,525.7261,309.9771,529.7261,319.9771,533.7261,315.9771,529.7261" style="stroke:#181818;stroke-width:1;"/><line style="stroke:#181818;stroke-width:1;stroke-dasharray:2,2;" x1="313.9771" x2="631.8401" y1="529.7261" y2="529.7261"/><text fill="#000000" font-family="sans-serif" font-size="13" lengthAdjust="spacing" textLength="53.664" x="325.9771" y="523.9171">exitCode</text></g><line style="stroke:#000000;stroke-width:1;stroke-dasharray:2,2;" x1="256.0652" x2="677.091" y1="538.7261" y2="538.7261"/><text fill="#000000" font-family="sans-serif" font-size="11" font-weight="bold" lengthAdjust="spacing" textLength="57.2106" x="261.0652" y="550.485">[Other OS]</text><g class="message" data-participant-1="EditorUtil" data-participant-2="Process"><polygon fill="#181818" points="620.8401,574.414,630.8401,578.414,620.8401,582.414,624.8401,578.414" style="stroke:#181818;stroke-width:1;"/><line style="stroke:#181818;stroke-width:1;" x1="308.9771" x2="626.8401" y1="578.414" y2="578.414"/><text fill="#000000" font-family="sans-serif" font-size="13" lengthAdjust="spacing" textLength="214.3962" x="315.9771" y="572.605">tryLaunchEditor("vim/nano/vi", file)</text></g><g class="message" data-participant-1="Process" data-participant-2="EditorUtil"><polygon fill="#181818" points="319.9771,606.12,309.9771,610.12,319.9771,614.12,315.9771,610.12" style="stroke:#181818;stroke-width:1;"/><line style="stroke:#181818;stroke-width:1;stroke-dasharray:2,2;" x1="313.9771" x2="631.8401" y1="610.12" y2="610.12"/><text fill="#000000" font-family="sans-serif" font-size="13" lengthAdjust="spacing" textLength="53.664" x="325.9771" y="604.311">exitCode</text></g><path d="M20,632.12 L86.918,632.12 L86.918,641.826 L76.918,651.826 L20,651.826 L20,632.12" fill="#EEEEEE" style="stroke:#000000;stroke-width:1.5;"/><rect fill="none" height="51.412" style="stroke:#000000;stroke-width:1.5;" width="331.889" x="20" y="632.12"/><text fill="#000000" font-family="sans-serif" font-size="13" font-weight="bold" lengthAdjust="spacing" textLength="21.918" x="35" y="647.017">opt</text><text fill="#000000" font-family="sans-serif" font-size="11" font-weight="bold" lengthAdjust="spacing" textLength="173.3038" x="101.918" y="645.8789">[All OS fallback attempts failed]</text><g class="message" data-participant-1="EditorUtil" data-participant-2="Command"><polygon fill="#181818" points="89.1829,671.532,79.1829,675.532,89.1829,679.532,85.1829,675.532" style="stroke:#181818;stroke-width:1;"/><line style="stroke:#181818;stroke-width:1;stroke-dasharray:2,2;" x1="83.1829" x2="297.9771" y1="675.532" y2="675.532"/><text fill="#000000" font-family="sans-serif" font-size="13" lengthAdjust="spacing" textLength="196.7942" x="95.1829" y="669.723">throw EditorNotFoundException</text></g><g class="message" data-participant-1="EditorUtil" data-participant-2="Command"><polygon fill="#181818" points="89.1829,717.2381,79.1829,721.2381,89.1829,725.2381,85.1829,721.2381" style="stroke:#181818;stroke-width:1;"/><line style="stroke:#181818;stroke-width:1;stroke-dasharray:2,2;" x1="83.1829" x2="302.9771" y1="721.2381" y2="721.2381"/><text fill="#000000" font-family="sans-serif" font-size="13" lengthAdjust="spacing" textLength="96.5381" x="95.1829" y="715.429">return (success)</text></g><!--SRC=[dPDDRzf048Rl-oj6lXHB2TnHX1IbH4AA82fDU-bbinxmAEiTopiG-FTThzT04BHfVTclTzvzTcPSwqR8KAsTG3P-uAhIhiX0UqXpLPygxkwCrTvF9h_Sj23XvaN8Hlbn-J5YlDnxmIfgkkdP-NF31hsFWZHNggG2OSKihxnJsWXjjU01INtffs2qjHykxmzk9oUxO-0QtImn3rPayLbBcH-jJnnQznBD6z0AMYNWZhnuTPIqvjrRnb4nx1I3N74jyDZ6LEGzkRM2y9q6XiX4E0Of6tw7ESzPy94thfZk3DP2x1IcLqOEmyvpyDHRJLQ_aYNPNw7fnc6AI41pxYq-WTET1gJBHDqnMBrnfWJBQp9NKDOewBQ3xCTi-NB_bEKmEcnDlyw-Bxvb-VN8q0WrDh8VPEo7JbSOn6Vgr2k1kza_HPnKNOp3JQnChf8iFlMq8KB9v84BL355dG6iGeAnk6ajOR6yzJKQMf49-zQ-QlCMywUjm4zo1R_xk3xFwH_GCXTANUiYD0ncFM7lyLVILeJM8ooan2O0_lFrMwf6JZiURUa_hmzTq8vjpkwj3Go7t82MKBrQVChYHRZFzrj_M-oxQnODogPnCF0RqxBdgi1BV_Hl]--></g></svg>