<svg xmlns="http://www.w3.org/2000/svg" xmlns:xlink="http://www.w3.org/1999/xlink" contentStyleType="text/css" data-diagram-type="CLASS" height="360px" preserveAspectRatio="none" style="width:579px;height:360px;background:#FFFFFF;" version="1.1" viewBox="0 0 579 360" width="579px" zoomAndPan="magnify"><defs/><g><!--cluster NoteCommands--><g class="cluster" data-entity="NoteCommands" data-source-line="3" data-uid="ent0002" id="cluster_NoteCommands"><path d="M8.5,6.602 L122.4516,6.602 A3.75,3.75 0 0 1 124.9516,9.102 L131.9516,31.6699 L569.5,31.6699 A2.5,2.5 0 0 1 572,34.1699 L572,351.102 A2.5,2.5 0 0 1 569.5,353.602 L8.5,353.602 A2.5,2.5 0 0 1 6,351.102 L6,9.102 A2.5,2.5 0 0 1 8.5,6.602" fill="none" style="stroke:#000000;stroke-width:1.5;"/><line style="stroke:#000000;stroke-width:1.5;" x1="6" x2="131.9516" y1="31.6699" y2="31.6699"/><text fill="#000000" font-family="sans-serif" font-size="14" font-weight="bold" lengthAdjust="spacing" textLength="112.9516" x="10" y="23.5679">NoteCommands</text></g><!--class Command--><g class="entity" data-entity="Command" data-source-line="4" data-uid="ent0003" id="entity_Command"><rect fill="#F1F1F1" height="83.2038" rx="2.5" ry="2.5" style="stroke:#181818;stroke-width:0.5;" width="532.6998" x="22.5" y="149.602"/><text fill="#000000" font-family="sans-serif" font-size="14" font-style="italic" lengthAdjust="spacing" textLength="64.7638" x="256.468" y="169.5679">Command</text><line style="stroke:#181818;stroke-width:0.5;" x1="23.5" x2="554.1998" y1="178.6699" y2="178.6699"/><line style="stroke:#181818;stroke-width:0.5;" x1="23.5" x2="554.1998" y1="186.6699" y2="186.6699"/><text fill="#000000" font-family="sans-serif" font-size="14" font-style="italic" lengthAdjust="spacing" textLength="520.6998" x="28.5" y="205.6358">+execute(notes : ArrayList&lt;Note&gt;, tags : List&lt;String&gt;, ui : UI, storage : Storage) : void</text><text fill="#000000" font-family="sans-serif" font-size="14" lengthAdjust="spacing" textLength="115.1776" x="28.5" y="224.7038">+isExit() : boolean</text></g><!--class NewNoteCommand--><g class="entity" data-entity="NewNoteCommand" data-source-line="9" data-uid="ent0004" id="entity_NewNoteCommand"><rect fill="#F1F1F1" height="45.0679" rx="2.5" ry="2.5" style="stroke:#181818;stroke-width:0.5;" width="136.2135" x="390" y="44.602"/><text fill="#000000" font-family="sans-serif" font-size="14" lengthAdjust="spacing" textLength="130.2135" x="393" y="64.5679">NewNoteCommand</text><line style="stroke:#181818;stroke-width:0.5;" x1="391" x2="525.2135" y1="73.6699" y2="73.6699"/><line style="stroke:#181818;stroke-width:0.5;" x1="391" x2="525.2135" y1="81.6699" y2="81.6699"/></g><!--class EditNoteCommand--><g class="entity" data-entity="EditNoteCommand" data-source-line="10" data-uid="ent0005" id="entity_EditNoteCommand"><rect fill="#F1F1F1" height="45.0679" rx="2.5" ry="2.5" style="stroke:#181818;stroke-width:0.5;" width="131.7335" x="223" y="44.602"/><text fill="#000000" font-family="sans-serif" font-size="14" lengthAdjust="spacing" textLength="125.7335" x="226" y="64.5679">EditNoteCommand</text><line style="stroke:#181818;stroke-width:0.5;" x1="224" x2="353.7335" y1="73.6699" y2="73.6699"/><line style="stroke:#181818;stroke-width:0.5;" x1="224" x2="353.7335" y1="81.6699" y2="81.6699"/></g><!--class DeleteNoteCommand--><g class="entity" data-entity="DeleteNoteCommand" data-source-line="11" data-uid="ent0006" id="entity_DeleteNoteCommand"><rect fill="#F1F1F1" height="45.0679" rx="2.5" ry="2.5" style="stroke:#181818;stroke-width:0.5;" width="149.2474" x="38.5" y="44.602"/><text fill="#000000" font-family="sans-serif" font-size="14" lengthAdjust="spacing" textLength="143.2474" x="41.5" y="64.5679">DeleteNoteCommand</text><line style="stroke:#181818;stroke-width:0.5;" x1="39.5" x2="186.7474" y1="73.6699" y2="73.6699"/><line style="stroke:#181818;stroke-width:0.5;" x1="39.5" x2="186.7474" y1="81.6699" y2="81.6699"/></g><!--class ArchiveNoteCommand--><g class="entity" data-entity="ArchiveNoteCommand" data-source-line="12" data-uid="ent0007" id="entity_ArchiveNoteCommand"><rect fill="#F1F1F1" height="45.0679" rx="2.5" ry="2.5" style="stroke:#181818;stroke-width:0.5;" width="155.3934" x="107.5" y="292.602"/><text fill="#000000" font-family="sans-serif" font-size="14" lengthAdjust="spacing" textLength="149.3934" x="110.5" y="312.5679">ArchiveNoteCommand</text><line style="stroke:#181818;stroke-width:0.5;" x1="108.5" x2="261.8934" y1="321.6699" y2="321.6699"/><line style="stroke:#181818;stroke-width:0.5;" x1="108.5" x2="261.8934" y1="329.6699" y2="329.6699"/></g><!--class PrintNoteBodyCommand--><g class="entity" data-entity="PrintNoteBodyCommand" data-source-line="13" data-uid="ent0008" id="entity_PrintNoteBodyCommand"><rect fill="#F1F1F1" height="45.0679" rx="2.5" ry="2.5" style="stroke:#181818;stroke-width:0.5;" width="171.5634" x="298" y="292.602"/><text fill="#000000" font-family="sans-serif" font-size="14" lengthAdjust="spacing" textLength="165.5634" x="301" y="312.5679">PrintNoteBodyCommand</text><line style="stroke:#181818;stroke-width:0.5;" x1="299" x2="468.5634" y1="321.6699" y2="321.6699"/><line style="stroke:#181818;stroke-width:0.5;" x1="299" x2="468.5634" y1="329.6699" y2="329.6699"/></g><!--link NewNoteCommand to Command--><g class="link" data-entity-1="NewNoteCommand" data-entity-2="Command" data-source-line="16" data-uid="lnk9" id="link_NewNoteCommand_Command"><path codeLine="16" d="M428.18,89.632 C405.24,106.182 387.4958,119.0081 359.7558,139.0281" fill="none" id="NewNoteCommand-to-Command" style="stroke:#181818;stroke-width:1;"/><polygon fill="none" points="345.16,149.562,363.2671,143.8934,356.2446,134.1629,345.16,149.562" style="stroke:#181818;stroke-width:1;"/></g><!--link DeleteNoteCommand to Command--><g class="link" data-entity-1="DeleteNoteCommand" data-entity-2="Command" data-source-line="17" data-uid="lnk10" id="link_DeleteNoteCommand_Command"><path codeLine="17" d="M144.06,89.632 C167.94,106.182 186.8368,119.2871 215.7168,139.3071" fill="none" id="DeleteNoteCommand-to-Command" style="stroke:#181818;stroke-width:1;"/><polygon fill="none" points="230.51,149.562,219.1351,134.3761,212.2985,144.2382,230.51,149.562" style="stroke:#181818;stroke-width:1;"/></g><!--link EditNoteCommand to Command--><g class="link" data-entity-1="EditNoteCommand" data-entity-2="Command" data-source-line="18" data-uid="lnk11" id="link_EditNoteCommand_Command"><path codeLine="18" d="M289,89.632 C289,106.182 289,111.542 289,131.562" fill="none" id="EditNoteCommand-to-Command" style="stroke:#181818;stroke-width:1;"/><polygon fill="none" points="289,149.562,295,131.562,283,131.562,289,149.562" style="stroke:#181818;stroke-width:1;"/></g><!--reverse link Command to ArchiveNoteCommand--><g class="link" data-entity-1="Command" data-entity-2="ArchiveNoteCommand" data-source-line="19" data-uid="lnk13" id="link_Command_ArchiveNoteCommand"><path codeLine="19" d="M242.6942,246.4215 C225.6742,266.3915 217.53,275.942 203.44,292.462" fill="none" id="Command-backto-ArchiveNoteCommand" style="stroke:#181818;stroke-width:1;"/><polygon fill="none" points="254.37,232.722,238.1277,242.5295,247.2607,250.3134,254.37,232.722" style="stroke:#181818;stroke-width:1;"/></g><!--reverse link Command to PrintNoteBodyCommand--><g class="link" data-entity-1="Command" data-entity-2="PrintNoteBodyCommand" data-source-line="20" data-uid="lnk15" id="link_Command_PrintNoteBodyCommand"><path codeLine="20" d="M331.6888,246.9242 C347.2388,266.8942 354.29,275.942 367.15,292.462" fill="none" id="Command-backto-PrintNoteBodyCommand" style="stroke:#181818;stroke-width:1;"/><polygon fill="none" points="320.63,232.722,326.9547,250.6105,336.4229,243.2379,320.63,232.722" style="stroke:#181818;stroke-width:1;"/></g><!--SRC=[TOz1QuD048Nl_egvDQKHUWubO9iSX18AqXymheCEqLtP7TEagV-zgoPWrSvbb_SzthnnHzOrMgn0bUXS968vROHYPNJ2tmJFGS4PWMAhIWfgL4VC2Gv6wCrK5UhCmJK0FvWwiQXa288RlS5kdk1wzxH0Pr9-pKhx80SRYAp5opixUUcYjsiGp3kzbn9VIkTURDXBd_4Qd1ZRzTX0ClmU_VTaE1jjOxS_iwmwaXfJ4keUja7_32qFz3KwPGJs6SiosL59GiiiighWqp_mmn_HPxwQx7B7FN-0M1TaML0hwfM_lI0CVxOmJfoLc5ic5ymDyx8GDlNKjTHwwcj_0G00]--></g></svg>