<svg xmlns="http://www.w3.org/2000/svg" xmlns:xlink="http://www.w3.org/1999/xlink" contentStyleType="text/css" data-diagram-type="ACTIVITY" height="1180px" preserveAspectRatio="none" style="width:465px;height:1180px;background:#FFFFFF;" version="1.1" viewBox="0 0 465 1180" width="465px" zoomAndPan="magnify"><defs/><g><ellipse cx="217.9802" cy="20" fill="#222222" rx="10" ry="10" style="stroke:#222222;stroke-width:1;"/><rect fill="#F1F1F1" height="36.3441" rx="12.5" ry="12.5" style="stroke:#181818;stroke-width:0.5;" width="199.5093" x="118.2256" y="50"/><text fill="#000000" font-family="sans-serif" font-size="12" lengthAdjust="spacing" textLength="179.5093" x="128.2256" y="72.8281">User enters "new &lt;title&gt; [body]"</text><rect fill="#F1F1F1" height="36.3441" rx="12.5" ry="12.5" style="stroke:#181818;stroke-width:0.5;" width="177.4291" x="129.2657" y="106.3441"/><text fill="#000000" font-family="sans-serif" font-size="12" lengthAdjust="spacing" textLength="157.4291" x="139.2657" y="129.1722">NewNoteCommand created</text><rect fill="#F1F1F1" height="36.3441" rx="12.5" ry="12.5" style="stroke:#181818;stroke-width:0.5;" width="214.1134" x="110.9235" y="162.6882"/><text fill="#000000" font-family="sans-serif" font-size="12" lengthAdjust="spacing" textLength="194.1134" x="120.9235" y="185.5163">Generate timestamp (Instant.now)</text><rect fill="#F1F1F1" height="36.3441" rx="12.5" ry="12.5" style="stroke:#181818;stroke-width:0.5;" width="231.0815" x="102.4395" y="219.0323"/><text fill="#000000" font-family="sans-serif" font-size="12" lengthAdjust="spacing" textLength="211.0815" x="112.4395" y="241.8604">Compute ID = hash(title + timestamp)</text><polygon fill="#F1F1F1" points="155.3742,275.3765,280.5863,275.3765,292.5863,287.3765,280.5863,299.3765,155.3742,299.3765,143.3742,287.3765,155.3742,275.3765" style="stroke:#181818;stroke-width:0.5;"/><text fill="#000000" font-family="sans-serif" font-size="11" lengthAdjust="spacing" textLength="125.2121" x="155.3742" y="291.6444">Filename already exists?</text><text fill="#000000" font-family="sans-serif" font-size="11" lengthAdjust="spacing" textLength="17.6989" x="125.6753" y="284.1535">Yes</text><text fill="#000000" font-family="sans-serif" font-size="11" lengthAdjust="spacing" textLength="15.0149" x="292.5863" y="284.1535">No</text><rect fill="#F1F1F1" height="36.3441" rx="12.5" ry="12.5" style="stroke:#181818;stroke-width:0.5;" width="182.3851" x="11" y="309.3765"/><text fill="#000000" font-family="sans-serif" font-size="12" lengthAdjust="spacing" textLength="162.3851" x="21" y="332.2045">Throw InvalidInputException</text><ellipse cx="102.1926" cy="376.7206" fill="none" rx="11" ry="11" style="stroke:#222222;stroke-width:1;"/><ellipse cx="102.1926" cy="376.7206" fill="#222222" rx="6" ry="6" style="stroke:#222222;stroke-width:1;"/><rect fill="#F1F1F1" height="36.3441" rx="12.5" ry="12.5" style="stroke:#181818;stroke-width:0.5;" width="240.7656" x="213.3851" y="309.3765"/><text fill="#000000" font-family="sans-serif" font-size="12" lengthAdjust="spacing" textLength="220.7656" x="223.3851" y="332.2045">Create Note(title, id, body, timestamps)</text><rect fill="#F1F1F1" height="36.3441" rx="12.5" ry="12.5" style="stroke:#181818;stroke-width:0.5;" width="140.0729" x="147.9438" y="407.7206"/><text fill="#000000" font-family="sans-serif" font-size="12" lengthAdjust="spacing" textLength="120.0729" x="157.9438" y="430.5487">Add note to notes list</text><rect fill="#F1F1F1" height="36.3441" rx="12.5" ry="12.5" style="stroke:#181818;stroke-width:0.5;" width="197.8893" x="119.0356" y="464.0647"/><text fill="#000000" font-family="sans-serif" font-size="12" lengthAdjust="spacing" textLength="177.8893" x="129.0356" y="486.8928">storage.createStorageFile(note)</text><rect fill="#F1F1F1" height="36.3441" rx="12.5" ry="12.5" style="stroke:#181818;stroke-width:0.5;" width="130.4608" x="152.7498" y="520.4088"/><text fill="#000000" font-family="sans-serif" font-size="12" lengthAdjust="spacing" textLength="110.4608" x="162.7498" y="543.2369">storage.save(notes)</text><polygon fill="#F1F1F1" points="168.4091,576.7529,267.5514,576.7529,279.5514,588.7529,267.5514,600.7529,168.4091,600.7529,156.4091,588.7529,168.4091,576.7529" style="stroke:#181818;stroke-width:0.5;"/><text fill="#000000" font-family="sans-serif" font-size="11" lengthAdjust="spacing" textLength="99.1423" x="168.4091" y="593.0209">shouldOpenEditor?</text><text fill="#000000" font-family="sans-serif" font-size="11" lengthAdjust="spacing" textLength="17.6989" x="138.7102" y="585.5299">Yes</text><text fill="#000000" font-family="sans-serif" font-size="11" lengthAdjust="spacing" textLength="15.0149" x="279.5514" y="585.5299">No</text><rect fill="#F1F1F1" height="36.3441" rx="12.5" ry="12.5" style="stroke:#181818;stroke-width:0.5;" width="153.3089" x="52.1603" y="610.7529"/><text fill="#000000" font-family="sans-serif" font-size="12" lengthAdjust="spacing" textLength="133.3089" x="62.1603" y="633.581">ui.showOpeningEditor()</text><rect fill="#F1F1F1" height="36.3441" rx="12.5" ry="12.5" style="stroke:#181818;stroke-width:0.5;" width="208.9293" x="24.3501" y="667.097"/><text fill="#000000" font-family="sans-serif" font-size="12" lengthAdjust="spacing" textLength="188.9293" x="34.3501" y="689.9251">EditorUtil.openInEditor(notePath)</text><rect fill="#F1F1F1" height="36.3441" rx="12.5" ry="12.5" style="stroke:#181818;stroke-width:0.5;" width="155.757" x="50.9362" y="723.4411"/><text fill="#000000" font-family="sans-serif" font-size="12" lengthAdjust="spacing" textLength="135.757" x="60.9362" y="746.2692">User edits and saves file</text><rect fill="#F1F1F1" height="36.3441" rx="12.5" ry="12.5" style="stroke:#181818;stroke-width:0.5;" width="196.0293" x="30.8001" y="779.7853"/><text fill="#000000" font-family="sans-serif" font-size="12" lengthAdjust="spacing" textLength="176.0293" x="40.8001" y="802.6133">Read file back (Files.readString)</text><rect fill="#F1F1F1" height="36.3441" rx="12.5" ry="12.5" style="stroke:#181818;stroke-width:0.5;" width="165.885" x="45.8722" y="836.1294"/><text fill="#000000" font-family="sans-serif" font-size="12" lengthAdjust="spacing" textLength="145.885" x="55.8722" y="858.9575">note.setBody(editedBody)</text><rect fill="#F1F1F1" height="36.3441" rx="12.5" ry="12.5" style="stroke:#181818;stroke-width:0.5;" width="158.193" x="49.7182" y="892.4735"/><text fill="#000000" font-family="sans-serif" font-size="12" lengthAdjust="spacing" textLength="138.193" x="59.7182" y="915.3016">note.updateModifiedAt()</text><rect fill="#F1F1F1" height="36.3441" rx="12.5" ry="12.5" style="stroke:#181818;stroke-width:0.5;" width="130.4608" x="63.5843" y="948.8176"/><text fill="#000000" font-family="sans-serif" font-size="12" lengthAdjust="spacing" textLength="110.4608" x="73.5843" y="971.6457">storage.save(notes)</text><rect fill="#F1F1F1" height="36.3441" rx="12.5" ry="12.5" style="stroke:#181818;stroke-width:0.5;" width="195.1892" x="31.2201" y="1005.1617"/><text fill="#000000" font-family="sans-serif" font-size="12" lengthAdjust="spacing" textLength="175.1892" x="41.2201" y="1027.9898">ui.showNoteSavedFromEditor()</text><rect fill="#F1F1F1" height="36.3441" rx="12.5" ry="12.5" style="stroke:#181818;stroke-width:0.5;" width="107.7327" x="253.2794" y="610.7529"/><text fill="#000000" font-family="sans-serif" font-size="12" lengthAdjust="spacing" textLength="87.7327" x="263.2794" y="633.581">Skip editor step</text><polygon fill="#F1F1F1" points="217.9802,1047.5058,229.9802,1059.5058,217.9802,1071.5058,205.9802,1059.5058,217.9802,1047.5058" style="stroke:#181818;stroke-width:0.5;"/><rect fill="#F1F1F1" height="36.3441" rx="12.5" ry="12.5" style="stroke:#181818;stroke-width:0.5;" width="160.617" x="137.6717" y="1091.5058"/><text fill="#000000" font-family="sans-serif" font-size="12" lengthAdjust="spacing" textLength="140.617" x="147.6717" y="1114.3339">ui.showAddedNote(note)</text><ellipse cx="217.9802" cy="1158.8499" fill="none" rx="11" ry="11" style="stroke:#222222;stroke-width:1;"/><ellipse cx="217.9802" cy="1158.8499" fill="#222222" rx="6" ry="6" style="stroke:#222222;stroke-width:1;"/><line style="stroke:#181818;stroke-width:1;" x1="217.9802" x2="217.9802" y1="30" y2="50"/><polygon fill="#181818" points="213.9802,40,217.9802,50,221.9802,40,217.9802,44" style="stroke:#181818;stroke-width:1;"/><line style="stroke:#181818;stroke-width:1;" x1="217.9802" x2="217.9802" y1="86.3441" y2="106.3441"/><polygon fill="#181818" points="213.9802,96.3441,217.9802,106.3441,221.9802,96.3441,217.9802,100.3441" style="stroke:#181818;stroke-width:1;"/><line style="stroke:#181818;stroke-width:1;" x1="217.9802" x2="217.9802" y1="142.6882" y2="162.6882"/><polygon fill="#181818" points="213.9802,152.6882,217.9802,162.6882,221.9802,152.6882,217.9802,156.6882" style="stroke:#181818;stroke-width:1;"/><line style="stroke:#181818;stroke-width:1;" x1="217.9802" x2="217.9802" y1="199.0323" y2="219.0323"/><polygon fill="#181818" points="213.9802,209.0323,217.9802,219.0323,221.9802,209.0323,217.9802,213.0323" style="stroke:#181818;stroke-width:1;"/><line style="stroke:#181818;stroke-width:1;" x1="102.1926" x2="102.1926" y1="345.7206" y2="365.7206"/><polygon fill="#181818" points="98.1926,355.7206,102.1926,365.7206,106.1926,355.7206,102.1926,359.7206" style="stroke:#181818;stroke-width:1;"/><line style="stroke:#181818;stroke-width:1;" x1="143.3742" x2="102.1926" y1="287.3765" y2="287.3765"/><line style="stroke:#181818;stroke-width:1;" x1="102.1926" x2="102.1926" y1="287.3765" y2="309.3765"/><polygon fill="#181818" points="98.1926,299.3765,102.1926,309.3765,106.1926,299.3765,102.1926,303.3765" style="stroke:#181818;stroke-width:1;"/><line style="stroke:#181818;stroke-width:1;" x1="292.5863" x2="333.7679" y1="287.3765" y2="287.3765"/><line style="stroke:#181818;stroke-width:1;" x1="333.7679" x2="333.7679" y1="287.3765" y2="309.3765"/><polygon fill="#181818" points="329.7679,299.3765,333.7679,309.3765,337.7679,299.3765,333.7679,303.3765" style="stroke:#181818;stroke-width:1;"/><line style="stroke:#181818;stroke-width:1;" x1="333.7679" x2="333.7679" y1="345.7206" y2="392.7206"/><line style="stroke:#181818;stroke-width:1;" x1="333.7679" x2="217.9802" y1="392.7206" y2="392.7206"/><line style="stroke:#181818;stroke-width:1;" x1="217.9802" x2="217.9802" y1="392.7206" y2="407.7206"/><polygon fill="#181818" points="213.9802,397.7206,217.9802,407.7206,221.9802,397.7206,217.9802,401.7206" style="stroke:#181818;stroke-width:1;"/><line style="stroke:#181818;stroke-width:1;" x1="217.9802" x2="217.9802" y1="255.3765" y2="275.3765"/><polygon fill="#181818" points="213.9802,265.3765,217.9802,275.3765,221.9802,265.3765,217.9802,269.3765" style="stroke:#181818;stroke-width:1;"/><line style="stroke:#181818;stroke-width:1;" x1="217.9802" x2="217.9802" y1="444.0647" y2="464.0647"/><polygon fill="#181818" points="213.9802,454.0647,217.9802,464.0647,221.9802,454.0647,217.9802,458.0647" style="stroke:#181818;stroke-width:1;"/><line style="stroke:#181818;stroke-width:1;" x1="217.9802" x2="217.9802" y1="500.4088" y2="520.4088"/><polygon fill="#181818" points="213.9802,510.4088,217.9802,520.4088,221.9802,510.4088,217.9802,514.4088" style="stroke:#181818;stroke-width:1;"/><line style="stroke:#181818;stroke-width:1;" x1="128.8147" x2="128.8147" y1="647.097" y2="667.097"/><polygon fill="#181818" points="124.8147,657.097,128.8147,667.097,132.8147,657.097,128.8147,661.097" style="stroke:#181818;stroke-width:1;"/><line style="stroke:#181818;stroke-width:1;" x1="128.8147" x2="128.8147" y1="703.4411" y2="723.4411"/><polygon fill="#181818" points="124.8147,713.4411,128.8147,723.4411,132.8147,713.4411,128.8147,717.4411" style="stroke:#181818;stroke-width:1;"/><line style="stroke:#181818;stroke-width:1;" x1="128.8147" x2="128.8147" y1="759.7853" y2="779.7853"/><polygon fill="#181818" points="124.8147,769.7853,128.8147,779.7853,132.8147,769.7853,128.8147,773.7853" style="stroke:#181818;stroke-width:1;"/><line style="stroke:#181818;stroke-width:1;" x1="128.8147" x2="128.8147" y1="816.1294" y2="836.1294"/><polygon fill="#181818" points="124.8147,826.1294,128.8147,836.1294,132.8147,826.1294,128.8147,830.1294" style="stroke:#181818;stroke-width:1;"/><line style="stroke:#181818;stroke-width:1;" x1="128.8147" x2="128.8147" y1="872.4735" y2="892.4735"/><polygon fill="#181818" points="124.8147,882.4735,128.8147,892.4735,132.8147,882.4735,128.8147,886.4735" style="stroke:#181818;stroke-width:1;"/><line style="stroke:#181818;stroke-width:1;" x1="128.8147" x2="128.8147" y1="928.8176" y2="948.8176"/><polygon fill="#181818" points="124.8147,938.8176,128.8147,948.8176,132.8147,938.8176,128.8147,942.8176" style="stroke:#181818;stroke-width:1;"/><line style="stroke:#181818;stroke-width:1;" x1="128.8147" x2="128.8147" y1="985.1617" y2="1005.1617"/><polygon fill="#181818" points="124.8147,995.1617,128.8147,1005.1617,132.8147,995.1617,128.8147,999.1617" style="stroke:#181818;stroke-width:1;"/><line style="stroke:#181818;stroke-width:1;" x1="156.4091" x2="128.8147" y1="588.7529" y2="588.7529"/><line style="stroke:#181818;stroke-width:1;" x1="128.8147" x2="128.8147" y1="588.7529" y2="610.7529"/><polygon fill="#181818" points="124.8147,600.7529,128.8147,610.7529,132.8147,600.7529,128.8147,604.7529" style="stroke:#181818;stroke-width:1;"/><line style="stroke:#181818;stroke-width:1;" x1="279.5514" x2="307.1457" y1="588.7529" y2="588.7529"/><line style="stroke:#181818;stroke-width:1;" x1="307.1457" x2="307.1457" y1="588.7529" y2="610.7529"/><polygon fill="#181818" points="303.1457,600.7529,307.1457,610.7529,311.1457,600.7529,307.1457,604.7529" style="stroke:#181818;stroke-width:1;"/><line style="stroke:#181818;stroke-width:1;" x1="128.8147" x2="128.8147" y1="1041.5058" y2="1059.5058"/><line style="stroke:#181818;stroke-width:1;" x1="128.8147" x2="205.9802" y1="1059.5058" y2="1059.5058"/><polygon fill="#181818" points="195.9802,1055.5058,205.9802,1059.5058,195.9802,1063.5058,199.9802,1059.5058" style="stroke:#181818;stroke-width:1;"/><line style="stroke:#181818;stroke-width:1;" x1="307.1457" x2="307.1457" y1="647.097" y2="1059.5058"/><line style="stroke:#181818;stroke-width:1;" x1="307.1457" x2="229.9802" y1="1059.5058" y2="1059.5058"/><polygon fill="#181818" points="239.9802,1055.5058,229.9802,1059.5058,239.9802,1063.5058,235.9802,1059.5058" style="stroke:#181818;stroke-width:1;"/><line style="stroke:#181818;stroke-width:1;" x1="217.9802" x2="217.9802" y1="556.7529" y2="576.7529"/><polygon fill="#181818" points="213.9802,566.7529,217.9802,576.7529,221.9802,566.7529,217.9802,570.7529" style="stroke:#181818;stroke-width:1;"/><line style="stroke:#181818;stroke-width:1;" x1="217.9802" x2="217.9802" y1="1071.5058" y2="1091.5058"/><polygon fill="#181818" points="213.9802,1081.5058,217.9802,1091.5058,221.9802,1081.5058,217.9802,1085.5058" style="stroke:#181818;stroke-width:1;"/><line style="stroke:#181818;stroke-width:1;" x1="217.9802" x2="217.9802" y1="1127.8499" y2="1147.8499"/><polygon fill="#181818" points="213.9802,1137.8499,217.9802,1147.8499,221.9802,1137.8499,217.9802,1141.8499" style="stroke:#181818;stroke-width:1;"/><!--SRC=[RL7BJiCm4BpdArQS4b7b0reUuj6Y72Y8m04X3gRUDbOJE_9k2FmzQxie83Z5cvsTdPabLfwpRFv4w04jeoSuiZZ22HjkyGnUtfp-V3rQPFCrZcl7UEMwJbaD6u-AKIza-0OjUYc0JOV4gkiXhwmyB9VMZOKCorG_2AAwXbDe53Lvv8VZQKPWcTb2lZ8jMjKXg5PMw4_03qDCvmLmWnRoPwGY0vW_DjwDKDbtrHfTMQ5VVcomP-FiGlh4hi-m9OHyxUB0LLGCmKJQFWEZPn0CpYOP93hGQhCLOnTQWtN1c8jVWbQaY1qXzsg7PGgXJbKGdWTOyGD1wZtzf6z_rBYXrNSzsgKsWlfZR32bOCQ0C7QNG7aHFCrJySIcBPsqgmD5N72lk4ceT4pf48HB1Ga4Mr4NkmyIQgpWJMtsAMygGzGrUrcOE09ZISYNaauUk527vu_cq6lnVkiaAeFwWWyI_pK-kGhfrzBIA- -woTklGzLxqqVzpiiPiPyESY2Hkw2ETpp47Oxz1G00]--></g></svg>