<svg xmlns="http://www.w3.org/2000/svg" xmlns:xlink="http://www.w3.org/1999/xlink" contentStyleType="text/css" data-diagram-type="SEQUENCE" height="619px" preserveAspectRatio="none" style="width:1234px;height:619px;background:#FFFFFF;" version="1.1" viewBox="0 0 1234 619" width="1234px" zoomAndPan="magnify"><defs/><g><g><title>.Zettel</title><rect fill="#FFFFFF" height="476.8661" style="stroke:#181818;stroke-width:1;" width="10" x="200.5711" y="117.7739"/></g><g><title>.UI</title><rect fill="#FFFFFF" height="31.706" style="stroke:#181818;stroke-width:1;" width="10" x="357.3432" y="149.4799"/></g><g><title>.Parser</title><rect fill="#FFFFFF" height="375.7481" style="stroke:#181818;stroke-width:1;" width="10" x="575.3273" y="212.892"/></g><g><title>.DeleteNoteCommand</title><rect fill="#FFFFFF" height="158.5301" style="stroke:#181818;stroke-width:1;" width="10" x="946.0461" y="415.11"/></g><g><title>.Storage</title><rect fill="#FFFFFF" height="31.706" style="stroke:#181818;stroke-width:1;" width="10" x="1178.4183" y="446.816"/></g><g><title>.Storage</title><rect fill="#FFFFFF" height="31.706" style="stroke:#181818;stroke-width:1;" width="10" x="1178.4183" y="510.228"/></g><rect fill="none" height="322.0421" style="stroke:#000000;stroke-width:1.5;" width="1060.035" x="167.9352" y="259.598"/><g><title>User</title><rect fill="#000000" fill-opacity="0.00000" height="528.5721" width="8" x="19.3089" y="84.0679"/><line style="stroke:#181818;stroke-width:0.5;stroke-dasharray:5,5;" x1="23" x2="23" y1="84.0679" y2="612.6401"/></g><g><title>.Zettel</title><rect fill="#000000" fill-opacity="0.00000" height="528.5721" width="8" x="201.5711" y="84.0679"/><line style="stroke:#181818;stroke-width:0.5;stroke-dasharray:5,5;" x1="204.9352" x2="204.9352" y1="84.0679" y2="612.6401"/></g><g><title>.UI</title><rect fill="#000000" fill-opacity="0.00000" height="528.5721" width="8" x="358.3432" y="84.0679"/><line style="stroke:#181818;stroke-width:0.5;stroke-dasharray:5,5;" x1="361.9772" x2="361.9772" y1="84.0679" y2="612.6401"/></g><g><title>.Parser</title><rect fill="#000000" fill-opacity="0.00000" height="528.5721" width="8" x="576.3273" y="84.0679"/><line style="stroke:#181818;stroke-width:0.5;stroke-dasharray:5,5;" x1="580.2064" x2="580.2064" y1="84.0679" y2="612.6401"/></g><g><title>.Validator</title><rect fill="#000000" fill-opacity="0.00000" height="528.5721" width="8" x="818.0465" y="84.0679"/><line style="stroke:#181818;stroke-width:0.5;stroke-dasharray:5,5;" x1="821.5466" x2="821.5466" y1="84.0679" y2="612.6401"/></g><g><title>.DeleteNoteCommand</title><rect fill="#000000" fill-opacity="0.00000" height="528.5721" width="8" x="947.0461" y="84.0679"/><line style="stroke:#181818;stroke-width:0.5;stroke-dasharray:5,5;" x1="950.5464" x2="950.5464" y1="84.0679" y2="612.6401"/></g><g><title>.Storage</title><rect fill="#000000" fill-opacity="0.00000" height="528.5721" width="8" x="1179.4183" y="84.0679"/><line style="stroke:#181818;stroke-width:0.5;stroke-dasharray:5,5;" x1="1182.8664" x2="1182.8664" y1="84.0679" y2="612.6401"/></g><g class="participant participant-head" data-participant="User"><text fill="#000000" font-family="sans-serif" font-size="14" lengthAdjust="spacing" textLength="30.6179" x="5" y="79.9659">User</text><ellipse cx="23.3089" cy="13.5" fill="#E2E2F0" rx="8" ry="8" style="stroke:#181818;stroke-width:0.5;"/><path d="M23.3089,21.5 L23.3089,48.5 M10.3089,29.5 L36.3089,29.5 M23.3089,48.5 L10.3089,63.5 M23.3089,48.5 L36.3089,63.5" fill="none" style="stroke:#181818;stroke-width:0.5;"/></g><g class="participant participant-head" data-participant=".Zettel"><rect fill="#E2E2F0" height="33.0679" rx="2.5" ry="2.5" style="stroke:#181818;stroke-width:0.5;" width="55.2718" x="177.9352" y="50"/><text fill="#000000" font-family="sans-serif" font-size="14" lengthAdjust="spacing" textLength="41.2718" x="184.9352" y="71.9659">:Zettel</text></g><g class="participant participant-head" data-participant=".UI"><rect fill="#E2E2F0" height="33.0679" rx="2.5" ry="2.5" style="stroke:#181818;stroke-width:0.5;" width="32.7319" x="345.9772" y="50"/><text fill="#000000" font-family="sans-serif" font-size="14" lengthAdjust="spacing" textLength="18.7319" x="352.9772" y="71.9659">:UI</text></g><g class="participant participant-head" data-participant=".Parser"><rect fill="#E2E2F0" height="33.0679" rx="2.5" ry="2.5" style="stroke:#181818;stroke-width:0.5;" width="60.2418" x="550.2064" y="50"/><text fill="#000000" font-family="sans-serif" font-size="14" lengthAdjust="spacing" textLength="46.2418" x="557.2064" y="71.9659">:Parser</text></g><g class="participant participant-head" data-participant=".Validator"><rect fill="#E2E2F0" height="33.0679" rx="2.5" ry="2.5" style="stroke:#181818;stroke-width:0.5;" width="76.9998" x="783.5466" y="50"/><text fill="#000000" font-family="sans-serif" font-size="14" lengthAdjust="spacing" textLength="62.9998" x="790.5466" y="71.9659">:Validator</text></g><g class="participant participant-head" data-participant=".DeleteNoteCommand"><rect fill="#E2E2F0" height="33.0679" rx="2.5" ry="2.5" style="stroke:#181818;stroke-width:0.5;" width="160.9994" x="870.5464" y="50"/><text fill="#000000" font-family="sans-serif" font-size="14" lengthAdjust="spacing" textLength="146.9994" x="877.5464" y="71.9659">:DeleteNoteCommand</text></g><g class="participant participant-head" data-participant=".Storage"><rect fill="#E2E2F0" height="33.0679" rx="2.5" ry="2.5" style="stroke:#181818;stroke-width:0.5;" width="69.1038" x="1148.8664" y="50"/><text fill="#000000" font-family="sans-serif" font-size="14" lengthAdjust="spacing" textLength="55.1038" x="1155.8664" y="71.9659">:Storage</text></g><g><title>.Zettel</title><rect fill="#FFFFFF" height="476.8661" style="stroke:#181818;stroke-width:1;" width="10" x="200.5711" y="117.7739"/></g><g><title>.UI</title><rect fill="#FFFFFF" height="31.706" style="stroke:#181818;stroke-width:1;" width="10" x="357.3432" y="149.4799"/></g><g><title>.Parser</title><rect fill="#FFFFFF" height="375.7481" style="stroke:#181818;stroke-width:1;" width="10" x="575.3273" y="212.892"/></g><g><title>.DeleteNoteCommand</title><rect fill="#FFFFFF" height="158.5301" style="stroke:#181818;stroke-width:1;" width="10" x="946.0461" y="415.11"/></g><g><title>.Storage</title><rect fill="#FFFFFF" height="31.706" style="stroke:#181818;stroke-width:1;" width="10" x="1178.4183" y="446.816"/></g><g><title>.Storage</title><rect fill="#FFFFFF" height="31.706" style="stroke:#181818;stroke-width:1;" width="10" x="1178.4183" y="510.228"/></g><g class="message" data-participant-1="User" data-participant-2=".Zettel"><polygon fill="#181818" points="188.5711,113.7739,198.5711,117.7739,188.5711,121.7739,192.5711,117.7739" style="stroke:#181818;stroke-width:1;"/><line style="stroke:#181818;stroke-width:1;" x1="23.3089" x2="194.5711" y1="117.7739" y2="117.7739"/><text fill="#000000" font-family="sans-serif" font-size="13" lengthAdjust="spacing" textLength="158.2621" x="30.3089" y="111.9649">input "delete -f abc12345"</text></g><g class="message" data-participant-1=".Zettel" data-participant-2=".UI"><polygon fill="#181818" points="345.3432,145.4799,355.3432,149.4799,345.3432,153.4799,349.3432,149.4799" style="stroke:#181818;stroke-width:1;"/><line style="stroke:#181818;stroke-width:1;" x1="210.5711" x2="351.3432" y1="149.4799" y2="149.4799"/><text fill="#000000" font-family="sans-serif" font-size="13" lengthAdjust="spacing" textLength="99.5021" x="217.5711" y="143.6709">readCommand()</text></g><g class="message" data-participant-1=".UI" data-participant-2=".Zettel"><polygon fill="#181818" points="221.5711,177.186,211.5711,181.186,221.5711,185.186,217.5711,181.186" style="stroke:#181818;stroke-width:1;"/><line style="stroke:#181818;stroke-width:1;stroke-dasharray:2,2;" x1="215.5711" x2="361.3432" y1="181.186" y2="181.186"/><text fill="#000000" font-family="sans-serif" font-size="13" lengthAdjust="spacing" textLength="122.7721" x="227.5711" y="175.377">"delete -f abc12345"</text></g><g class="message" data-participant-1=".Zettel" data-participant-2=".Parser"><polygon fill="#181818" points="563.3273,208.892,573.3273,212.892,563.3273,216.892,567.3273,212.892" style="stroke:#181818;stroke-width:1;"/><line style="stroke:#181818;stroke-width:1;" x1="210.5711" x2="569.3273" y1="212.892" y2="212.892"/><text fill="#000000" font-family="sans-serif" font-size="13" lengthAdjust="spacing" textLength="102.1411" x="217.5711" y="207.083">parse(userInput)</text></g><g class="message" data-participant-1=".Parser" data-participant-2=".Validator"><polygon fill="#181818" points="810.0465,240.598,820.0465,244.598,810.0465,248.598,814.0465,244.598" style="stroke:#181818;stroke-width:1;"/><line style="stroke:#181818;stroke-width:1;" x1="585.3273" x2="816.0465" y1="244.598" y2="244.598"/><text fill="#000000" font-family="sans-serif" font-size="13" lengthAdjust="spacing" textLength="212.7192" x="592.3273" y="238.789">validateCommandInput(userInput)</text></g><path d="M167.9352,259.598 L230.3942,259.598 L230.3942,269.304 L220.3942,279.304 L167.9352,279.304 L167.9352,259.598" fill="#EEEEEE" style="stroke:#000000;stroke-width:1.5;"/><rect fill="none" height="322.0421" style="stroke:#000000;stroke-width:1.5;" width="1060.035" x="167.9352" y="259.598"/><text fill="#000000" font-family="sans-serif" font-size="13" font-weight="bold" lengthAdjust="spacing" textLength="17.459" x="182.9352" y="274.495">alt</text><text fill="#000000" font-family="sans-serif" font-size="11" font-weight="bold" lengthAdjust="spacing" textLength="89.4954" x="245.3942" y="273.3569">[Validation fails]</text><g class="message" data-participant-1=".Validator" data-participant-2=".Zettel"><polygon fill="#181818" points="221.5711,299.01,211.5711,303.01,221.5711,307.01,217.5711,303.01" style="stroke:#181818;stroke-width:1;"/><line style="stroke:#181818;stroke-width:1;stroke-dasharray:2,2;" x1="215.5711" x2="821.0465" y1="303.01" y2="303.01"/><text fill="#000000" font-family="sans-serif" font-size="13" lengthAdjust="spacing" textLength="140.2441" x="227.5711" y="297.201">throws ZettelException</text></g><g class="message" data-participant-1=".Zettel" data-participant-2=".UI"><polygon fill="#181818" points="350.3432,330.716,360.3432,334.716,350.3432,338.716,354.3432,334.716" style="stroke:#181818;stroke-width:1;"/><line style="stroke:#181818;stroke-width:1;" x1="210.5711" x2="356.3432" y1="334.716" y2="334.716"/><text fill="#000000" font-family="sans-serif" font-size="13" lengthAdjust="spacing" textLength="71.3441" x="217.5711" y="328.907">showError()</text></g><line style="stroke:#000000;stroke-width:1;stroke-dasharray:2,2;" x1="167.9352" x2="1227.9702" y1="343.716" y2="343.716"/><text fill="#000000" font-family="sans-serif" font-size="11" font-weight="bold" lengthAdjust="spacing" textLength="102.9263" x="172.9352" y="355.475">[Validation passes]</text><g class="message" data-participant-1=".Parser" data-participant-2=".Zettel"><polygon fill="#181818" points="221.5711,379.404,211.5711,383.404,221.5711,387.404,217.5711,383.404" style="stroke:#181818;stroke-width:1;"/><line style="stroke:#181818;stroke-width:1;stroke-dasharray:2,2;" x1="215.5711" x2="574.3273" y1="383.404" y2="383.404"/><text fill="#000000" font-family="sans-serif" font-size="13" lengthAdjust="spacing" textLength="340.7562" x="227.5711" y="377.595">DeleteNoteCommand(noteId="abc12345", isForce=true)</text></g><g class="message" data-participant-1=".Zettel" data-participant-2=".DeleteNoteCommand"><polygon fill="#181818" points="934.0461,411.11,944.0461,415.11,934.0461,419.11,938.0461,415.11" style="stroke:#181818;stroke-width:1;"/><line style="stroke:#181818;stroke-width:1;" x1="210.5711" x2="940.0461" y1="415.11" y2="415.11"/><text fill="#000000" font-family="sans-serif" font-size="13" lengthAdjust="spacing" textLength="194.7532" x="217.5711" y="409.301">execute(notes, tags, ui, storage)</text></g><g class="message" data-participant-1=".DeleteNoteCommand" data-participant-2=".Storage"><polygon fill="#181818" points="1166.4183,442.816,1176.4183,446.816,1166.4183,450.816,1170.4183,446.816" style="stroke:#181818;stroke-width:1;"/><line style="stroke:#181818;stroke-width:1;" x1="956.0461" x2="1172.4183" y1="446.816" y2="446.816"/><text fill="#000000" font-family="sans-serif" font-size="13" lengthAdjust="spacing" textLength="203.3722" x="963.0461" y="441.007">deleteStorageFile("abc12345.txt")</text></g><g class="message" data-participant-1=".Storage" data-participant-2=".DeleteNoteCommand"><polygon fill="#181818" points="967.0461,474.522,957.0461,478.522,967.0461,482.522,963.0461,478.522" style="stroke:#181818;stroke-width:1;"/><line style="stroke:#181818;stroke-width:1;stroke-dasharray:2,2;" x1="961.0461" x2="1182.4183" y1="478.522" y2="478.522"/><text fill="#000000" font-family="sans-serif" font-size="13" lengthAdjust="spacing" textLength="110.3051" x="973.0461" y="472.713">deletion complete</text></g><g class="message" data-participant-1=".DeleteNoteCommand" data-participant-2=".Storage"><polygon fill="#181818" points="1166.4183,506.228,1176.4183,510.228,1166.4183,514.228,1170.4183,510.228" style="stroke:#181818;stroke-width:1;"/><line style="stroke:#181818;stroke-width:1;" x1="956.0461" x2="1172.4183" y1="510.228" y2="510.228"/><text fill="#000000" font-family="sans-serif" font-size="13" lengthAdjust="spacing" textLength="69.4071" x="963.0461" y="504.419">save(notes)</text></g><g class="message" data-participant-1=".Storage" data-participant-2=".DeleteNoteCommand"><polygon fill="#181818" points="967.0461,537.934,957.0461,541.934,967.0461,545.934,963.0461,541.934" style="stroke:#181818;stroke-width:1;"/><line style="stroke:#181818;stroke-width:1;stroke-dasharray:2,2;" x1="961.0461" x2="1182.4183" y1="541.934" y2="541.934"/><text fill="#000000" font-family="sans-serif" font-size="13" lengthAdjust="spacing" textLength="72.9821" x="973.0461" y="536.125">notes saved</text></g><g class="message" data-participant-1=".DeleteNoteCommand" data-participant-2=".Zettel"><polygon fill="#181818" points="221.5711,569.6401,211.5711,573.6401,221.5711,577.6401,217.5711,573.6401" style="stroke:#181818;stroke-width:1;"/><line style="stroke:#181818;stroke-width:1;stroke-dasharray:2,2;" x1="215.5711" x2="950.0461" y1="573.6401" y2="573.6401"/><text fill="#000000" font-family="sans-serif" font-size="13" lengthAdjust="spacing" textLength="120.1071" x="227.5711" y="567.831">execution complete</text></g><g class="message" data-participant-1=".Zettel" data-participant-2="User"><polygon fill="#181818" points="34.3089,590.6401,24.3089,594.6401,34.3089,598.6401,30.3089,594.6401" style="stroke:#181818;stroke-width:1;"/><line style="stroke:#181818;stroke-width:1;stroke-dasharray:2,2;" x1="28.3089" x2="204.5711" y1="594.6401" y2="594.6401"/></g><!--SRC=[hLFBQiCm4BpxAnQV74WAVLqCxQLD89TIAEcXDyNQ90B7CfAS-FEhbn-IJIcbFfZLIZkpEngT64KuSAxsl4qIKYWkO2TH93KHYXMi9fM2DFz2fR1Ce-nk6sVUYT35SVQJb8mI3Hrll6A92j-umXT-FfEAnWS-T14vOfeafYbOFG-zvC2gkj67g0M1rG78lhYzktzuJCqWx49qTcYzZnoAxZq7WOHwvcmnBZAJsJ-iGivPDefHQKpcPScXDa7MwCNMD1zmTjebVUYA1_LokBYuayk2172b0d-UyGeEX9Ko0VsDOUAPr4dmgmItNhS5rgRObqr5aoT-NGl1XPOCIubZmff8YHrZFqL8DxdqhDBnbZwblQ9BO7B3HO5FIZIuIEPwcNed1sonQ1HQGBa4HOxwtx0bIEUZXGKQQJvZGCyrtN6qdIDpS4xmwmqhCUi7k56jIYTalPaTGxVq-ipDOocChWK_rsRRbWPs6rx8R_kMvE8L-eSEBOw5f7_hBVI6ky2V9vwvCwne-0X7RwatZM7QsMnmrEz_0m00]--></g></svg>