<svg xmlns="http://www.w3.org/2000/svg" xmlns:xlink="http://www.w3.org/1999/xlink" contentStyleType="text/css" data-diagram-type="SEQUENCE" height="428px" preserveAspectRatio="none" style="width:777px;height:428px;background:#FFFFFF;" version="1.1" viewBox="0 0 777 428" width="777px" zoomAndPan="magnify"><defs/><g><g><title>.Command</title><rect fill="#FFFFFF" height="285.3541" style="stroke:#181818;stroke-width:1;" width="10" x="237.0621" y="117.7739"/></g><g><title>.Storage</title><rect fill="#FFFFFF" height="221.9421" style="stroke:#181818;stroke-width:1;" width="10" x="335.4692" y="149.4799"/></g><g><title>.NoteSerializer</title><rect fill="#FFFFFF" height="158.5301" style="stroke:#181818;stroke-width:1;" width="10" x="469.8733" y="181.186"/></g><g><title>.FileSystemManager</title><rect fill="#FFFFFF" height="31.706" style="stroke:#181818;stroke-width:1;" width="10" x="608.4628" y="212.892"/></g><g><title>File System</title><rect fill="#FFFFFF" height="31.706" style="stroke:#181818;stroke-width:1;" width="10" x="731.7894" y="276.304"/></g><g><title>User</title><rect fill="#000000" fill-opacity="0.00000" height="337.0602" width="8" x="19.3089" y="84.0679"/><line style="stroke:#181818;stroke-width:0.5;stroke-dasharray:5,5;" x1="23" x2="23" y1="84.0679" y2="421.1281"/></g><g><title>.Command</title><rect fill="#000000" fill-opacity="0.00000" height="337.0602" width="8" x="238.0621" y="84.0679"/><line style="stroke:#181818;stroke-width:0.5;stroke-dasharray:5,5;" x1="241.8793" x2="241.8793" y1="84.0679" y2="421.1281"/></g><g><title>.Storage</title><rect fill="#000000" fill-opacity="0.00000" height="337.0602" width="8" x="336.4692" y="84.0679"/><line style="stroke:#181818;stroke-width:0.5;stroke-dasharray:5,5;" x1="339.9173" x2="339.9173" y1="84.0679" y2="421.1281"/></g><g><title>.NoteSerializer</title><rect fill="#000000" fill-opacity="0.00000" height="337.0602" width="8" x="470.8733" y="84.0679"/><line style="stroke:#181818;stroke-width:0.5;stroke-dasharray:5,5;" x1="474.8115" x2="474.8115" y1="84.0679" y2="421.1281"/></g><g><title>.FileSystemManager</title><rect fill="#000000" fill-opacity="0.00000" height="337.0602" width="8" x="609.4628" y="84.0679"/><line style="stroke:#181818;stroke-width:0.5;stroke-dasharray:5,5;" x1="612.9351" x2="612.9351" y1="84.0679" y2="421.1281"/></g><g><title>File System</title><rect fill="#000000" fill-opacity="0.00000" height="337.0602" width="8" x="732.7894" y="84.0679"/><line style="stroke:#181818;stroke-width:0.5;stroke-dasharray:5,5;" x1="735.9906" x2="735.9906" y1="84.0679" y2="421.1281"/></g><g class="participant participant-head" data-participant="User"><text fill="#000000" font-family="sans-serif" font-size="14" lengthAdjust="spacing" textLength="30.6179" x="5" y="79.9659">User</text><ellipse cx="23.3089" cy="13.5" fill="#E2E2F0" rx="8" ry="8" style="stroke:#181818;stroke-width:0.5;"/><path d="M23.3089,21.5 L23.3089,48.5 M10.3089,29.5 L36.3089,29.5 M23.3089,48.5 L10.3089,63.5 M23.3089,48.5 L36.3089,63.5" fill="none" style="stroke:#181818;stroke-width:0.5;"/></g><g class="participant participant-head" data-participant=".Command"><rect fill="#E2E2F0" height="33.0679" rx="2.5" ry="2.5" style="stroke:#181818;stroke-width:0.5;" width="86.3657" x="198.8793" y="50"/><text fill="#000000" font-family="sans-serif" font-size="14" lengthAdjust="spacing" textLength="72.3657" x="205.8793" y="71.9659">:Command</text></g><g class="participant participant-head" data-participant=".Storage"><rect fill="#E2E2F0" height="33.0679" rx="2.5" ry="2.5" style="stroke:#181818;stroke-width:0.5;" width="69.1038" x="305.9173" y="50"/><text fill="#000000" font-family="sans-serif" font-size="14" lengthAdjust="spacing" textLength="55.1038" x="312.9173" y="71.9659">:Storage</text></g><g class="participant participant-head" data-participant=".NoteSerializer"><rect fill="#E2E2F0" height="33.0679" rx="2.5" ry="2.5" style="stroke:#181818;stroke-width:0.5;" width="110.1236" x="419.8115" y="50"/><text fill="#000000" font-family="sans-serif" font-size="14" lengthAdjust="spacing" textLength="96.1236" x="426.8115" y="71.9659">:NoteSerializer</text></g><g class="participant participant-head" data-participant=".FileSystemManager"><rect fill="#E2E2F0" height="33.0679" rx="2.5" ry="2.5" style="stroke:#181818;stroke-width:0.5;" width="147.0555" x="539.9351" y="50"/><text fill="#000000" font-family="sans-serif" font-size="14" lengthAdjust="spacing" textLength="133.0555" x="546.9351" y="71.9659">:FileSystemManager</text></g><g class="participant participant-head" data-participant="FS"><text fill="#000000" font-family="sans-serif" font-size="14" lengthAdjust="spacing" textLength="73.5977" x="696.9906" y="79.9659">File System</text><ellipse cx="736.7894" cy="49" fill="#E2E2F0" rx="12" ry="12" style="stroke:#181818;stroke-width:0.5;"/><line style="stroke:#181818;stroke-width:0.5;" x1="724.7894" x2="748.7894" y1="63" y2="63"/></g><g><title>.Command</title><rect fill="#FFFFFF" height="285.3541" style="stroke:#181818;stroke-width:1;" width="10" x="237.0621" y="117.7739"/></g><g><title>.Storage</title><rect fill="#FFFFFF" height="221.9421" style="stroke:#181818;stroke-width:1;" width="10" x="335.4692" y="149.4799"/></g><g><title>.NoteSerializer</title><rect fill="#FFFFFF" height="158.5301" style="stroke:#181818;stroke-width:1;" width="10" x="469.8733" y="181.186"/></g><g><title>.FileSystemManager</title><rect fill="#FFFFFF" height="31.706" style="stroke:#181818;stroke-width:1;" width="10" x="608.4628" y="212.892"/></g><g><title>File System</title><rect fill="#FFFFFF" height="31.706" style="stroke:#181818;stroke-width:1;" width="10" x="731.7894" y="276.304"/></g><g class="message" data-participant-1="User" data-participant-2=".Command"><polygon fill="#181818" points="225.0621,113.7739,235.0621,117.7739,225.0621,121.7739,229.0621,117.7739" style="stroke:#181818;stroke-width:1;"/><line style="stroke:#181818;stroke-width:1;" x1="23.3089" x2="231.0621" y1="117.7739" y2="117.7739"/><text fill="#000000" font-family="sans-serif" font-size="13" lengthAdjust="spacing" textLength="194.7532" x="30.3089" y="111.9649">execute(notes, tags, ui, storage)</text></g><g class="message" data-participant-1=".Command" data-participant-2=".Storage"><polygon fill="#181818" points="323.4692,145.4799,333.4692,149.4799,323.4692,153.4799,327.4692,149.4799" style="stroke:#181818;stroke-width:1;"/><line style="stroke:#181818;stroke-width:1;" x1="247.0621" x2="329.4692" y1="149.4799" y2="149.4799"/><text fill="#000000" font-family="sans-serif" font-size="13" lengthAdjust="spacing" textLength="69.4071" x="254.0621" y="143.6709">save(notes)</text></g><g class="message" data-participant-1=".Storage" data-participant-2=".NoteSerializer"><polygon fill="#181818" points="457.8733,177.186,467.8733,181.186,457.8733,185.186,461.8733,181.186" style="stroke:#181818;stroke-width:1;"/><line style="stroke:#181818;stroke-width:1;" x1="345.4692" x2="463.8733" y1="181.186" y2="181.186"/><text fill="#000000" font-family="sans-serif" font-size="13" lengthAdjust="spacing" textLength="105.4041" x="352.4692" y="175.377">saveNotes(notes)</text></g><g class="message" data-participant-1=".NoteSerializer" data-participant-2=".FileSystemManager"><polygon fill="#181818" points="596.4628,208.892,606.4628,212.892,596.4628,216.892,600.4628,212.892" style="stroke:#181818;stroke-width:1;"/><line style="stroke:#181818;stroke-width:1;" x1="479.8733" x2="602.4628" y1="212.892" y2="212.892"/><text fill="#000000" font-family="sans-serif" font-size="13" lengthAdjust="spacing" textLength="84.0711" x="486.8733" y="207.083">getSavePath()</text></g><g class="message" data-participant-1=".FileSystemManager" data-participant-2=".NoteSerializer"><polygon fill="#181818" points="490.8733,240.598,480.8733,244.598,490.8733,248.598,486.8733,244.598" style="stroke:#181818;stroke-width:1;"/><line style="stroke:#181818;stroke-width:1;stroke-dasharray:2,2;" x1="484.8733" x2="612.4628" y1="244.598" y2="244.598"/><text fill="#000000" font-family="sans-serif" font-size="13" lengthAdjust="spacing" textLength="28.015" x="496.8733" y="238.789">path</text></g><g class="message" data-participant-1=".NoteSerializer" data-participant-2="FS"><polygon fill="#181818" points="719.7894,272.304,729.7894,276.304,719.7894,280.304,723.7894,276.304" style="stroke:#181818;stroke-width:1;"/><line style="stroke:#181818;stroke-width:1;" x1="479.8733" x2="725.7894" y1="276.304" y2="276.304"/><text fill="#000000" font-family="sans-serif" font-size="13" lengthAdjust="spacing" textLength="154.0241" x="486.8733" y="270.495">write serialized note data</text></g><g class="message" data-participant-1="FS" data-participant-2=".NoteSerializer"><polygon fill="#181818" points="490.8733,304.01,480.8733,308.01,490.8733,312.01,486.8733,308.01" style="stroke:#181818;stroke-width:1;"/><line style="stroke:#181818;stroke-width:1;stroke-dasharray:2,2;" x1="484.8733" x2="735.7894" y1="308.01" y2="308.01"/><text fill="#000000" font-family="sans-serif" font-size="13" lengthAdjust="spacing" textLength="91.3121" x="496.8733" y="302.201">write complete</text></g><g class="message" data-participant-1=".NoteSerializer" data-participant-2=".Storage"><polygon fill="#181818" points="356.4692,335.716,346.4692,339.716,356.4692,343.716,352.4692,339.716" style="stroke:#181818;stroke-width:1;"/><line style="stroke:#181818;stroke-width:1;stroke-dasharray:2,2;" x1="350.4692" x2="473.8733" y1="339.716" y2="339.716"/><text fill="#000000" font-family="sans-serif" font-size="13" lengthAdjust="spacing" textLength="87.8021" x="362.4692" y="333.907">save complete</text></g><g class="message" data-participant-1=".Storage" data-participant-2=".Command"><polygon fill="#181818" points="258.0621,367.4221,248.0621,371.4221,258.0621,375.4221,254.0621,371.4221" style="stroke:#181818;stroke-width:1;"/><line style="stroke:#181818;stroke-width:1;stroke-dasharray:2,2;" x1="252.0621" x2="339.4692" y1="371.4221" y2="371.4221"/><text fill="#000000" font-family="sans-serif" font-size="13" lengthAdjust="spacing" textLength="46.527" x="264.0621" y="365.6131">success</text></g><g class="message" data-participant-1=".Command" data-participant-2="User"><polygon fill="#181818" points="34.3089,399.1281,24.3089,403.1281,34.3089,407.1281,30.3089,403.1281" style="stroke:#181818;stroke-width:1;"/><line style="stroke:#181818;stroke-width:1;stroke-dasharray:2,2;" x1="28.3089" x2="241.0621" y1="403.1281" y2="403.1281"/><text fill="#000000" font-family="sans-serif" font-size="13" lengthAdjust="spacing" textLength="140.1921" x="40.3089" y="397.3191">show success message</text></g><!--SRC=[VP9BReGm38RtEON5QYhDN815DvNOjQeKzG1kS24I44JCF7hwEaeP89Ds4qLs_Y-_7wsj2RwSuqztLGeDkma-F4rgn8cjiICE34NvuleUXxf8mbgUOqDf-CqnQPeiTlQRfZHRsOxqpJFrhpY8MXxGm9PlK8GKn5m1wA7IIWKtS7hUc2Y1hcHcfiCW7_aZC3PoplO8FXfw2fNOCp9jlQlr7e6B_H8yddzfE-czFhNUepGfCH92q6SmQJ_KGoX27pjJGaEi1VsEt1vsq4mRSq4uvVsE0bGr_G_C6wrq2PV9YiWlYHf2rL0Zu-fHfbVfl_wF0EFwiIEchPCmzCo_cObbvTbshyDBDidFnf3tUy1sxEl6Y3BiecXQTrc4qCiXR_U0-yhz0000]--></g></svg>