<svg xmlns="http://www.w3.org/2000/svg" xmlns:xlink="http://www.w3.org/1999/xlink" contentStyleType="text/css" data-diagram-type="ACTIVITY" height="1363px" preserveAspectRatio="none" style="width:480px;height:1363px;background:#FFFFFF;" version="1.1" viewBox="0 0 480 1363" width="480px" zoomAndPan="magnify"><defs/><g><ellipse cx="240.2416" cy="20" fill="#222222" rx="10" ry="10" style="stroke:#222222;stroke-width:1;"/><rect fill="#F1F1F1" height="36.3441" rx="12.5" ry="12.5" style="stroke:#181818;stroke-width:0.5;" width="184.1372" x="148.173" y="50"/><text fill="#000000" font-family="sans-serif" font-size="12" lengthAdjust="spacing" textLength="164.1372" x="158.173" y="72.8281">Call validateRepo(repoName)</text><rect fill="#F1F1F1" height="36.3441" rx="12.5" ry="12.5" style="stroke:#181818;stroke-width:0.5;" width="175.0651" x="152.709" y="106.3441"/><text fill="#000000" font-family="sans-serif" font-size="12" lengthAdjust="spacing" textLength="155.0651" x="162.709" y="129.1722">Retrieve indexPath for repo</text><rect fill="#F1F1F1" height="36.3441" rx="12.5" ry="12.5" style="stroke:#181818;stroke-width:0.5;" width="257.3737" x="111.5547" y="162.6882"/><text fill="#000000" font-family="sans-serif" font-size="12" lengthAdjust="spacing" textLength="237.3737" x="121.5547" y="185.5163">Get expectedFilesMap from NoteSerializer</text><rect fill="#F1F1F1" height="36.3441" rx="12.5" ry="12.5" style="stroke:#181818;stroke-width:0.5;" width="458.4832" x="11" y="219.0323"/><text fill="#000000" font-family="sans-serif" font-size="12" lengthAdjust="spacing" textLength="438.4832" x="21" y="241.8604">Call FileSystemManager.validateRepoStructure(repoName, expectedFilesMap)</text><polygon fill="#F1F1F1" points="189.191,275.3765,291.2923,275.3765,303.2923,287.3765,291.2923,299.3765,189.191,299.3765,177.191,287.3765,189.191,275.3765" style="stroke:#181818;stroke-width:0.5;"/><text fill="#000000" font-family="sans-serif" font-size="11" lengthAdjust="spacing" textLength="102.1013" x="189.191" y="291.6444">.zettelConfig exists?</text><text fill="#000000" font-family="sans-serif" font-size="11" lengthAdjust="spacing" textLength="17.0829" x="160.1081" y="284.1535">yes</text><text fill="#000000" font-family="sans-serif" font-size="11" lengthAdjust="spacing" textLength="13.4529" x="303.2923" y="284.1535">no</text><rect fill="#F1F1F1" height="36.3441" rx="12.5" ry="12.5" style="stroke:#181818;stroke-width:0.5;" width="71.2884" x="131.5468" y="309.3765"/><text fill="#000000" font-family="sans-serif" font-size="12" lengthAdjust="spacing" textLength="51.2884" x="141.5468" y="332.2045">Continue</text><rect fill="#F1F1F1" height="36.3441" rx="12.5" ry="12.5" style="stroke:#181818;stroke-width:0.5;" width="180.6451" x="222.9697" y="309.3765"/><text fill="#000000" font-family="sans-serif" font-size="12" lengthAdjust="spacing" textLength="160.6451" x="232.9697" y="332.2045">Throw InvalidRepoException</text><ellipse cx="313.2923" cy="376.7206" fill="none" rx="11" ry="11" style="stroke:#222222;stroke-width:1;"/><ellipse cx="313.2923" cy="376.7206" fill="#222222" rx="6" ry="6" style="stroke:#222222;stroke-width:1;"/><polygon fill="#F1F1F1" points="178.389,407.7206,302.0942,407.7206,314.0942,419.7206,302.0942,431.7206,178.389,431.7206,166.389,419.7206,178.389,407.7206" style="stroke:#181818;stroke-width:0.5;"/><text fill="#000000" font-family="sans-serif" font-size="11" lengthAdjust="spacing" textLength="123.7051" x="178.389" y="423.9885">repository folder exists?</text><text fill="#000000" font-family="sans-serif" font-size="11" lengthAdjust="spacing" textLength="17.0829" x="149.3062" y="416.4976">yes</text><text fill="#000000" font-family="sans-serif" font-size="11" lengthAdjust="spacing" textLength="13.4529" x="314.0942" y="416.4976">no</text><rect fill="#F1F1F1" height="36.3441" rx="12.5" ry="12.5" style="stroke:#181818;stroke-width:0.5;" width="71.2884" x="120.7449" y="441.7206"/><text fill="#000000" font-family="sans-serif" font-size="12" lengthAdjust="spacing" textLength="51.2884" x="130.7449" y="464.5487">Continue</text><rect fill="#F1F1F1" height="36.3441" rx="12.5" ry="12.5" style="stroke:#181818;stroke-width:0.5;" width="123.3328" x="262.4278" y="441.7206"/><text fill="#000000" font-family="sans-serif" font-size="12" lengthAdjust="spacing" textLength="103.3328" x="272.4278" y="464.5487">Create repo folder</text><polygon fill="#F1F1F1" points="240.2416,484.0647,252.2416,496.0647,240.2416,508.0647,228.2416,496.0647,240.2416,484.0647" style="stroke:#181818;stroke-width:0.5;"/><polygon fill="#F1F1F1" points="188.421,528.0647,292.0622,528.0647,304.0622,540.0647,292.0622,552.0647,188.421,552.0647,176.421,540.0647,188.421,528.0647" style="stroke:#181818;stroke-width:0.5;"/><text fill="#000000" font-family="sans-serif" font-size="11" lengthAdjust="spacing" textLength="103.6413" x="188.421" y="544.3327">notes/ folder exists?</text><text fill="#000000" font-family="sans-serif" font-size="11" lengthAdjust="spacing" textLength="17.0829" x="159.3381" y="536.8417">yes</text><text fill="#000000" font-family="sans-serif" font-size="11" lengthAdjust="spacing" textLength="13.4529" x="304.0622" y="536.8417">no</text><rect fill="#F1F1F1" height="36.3441" rx="12.5" ry="12.5" style="stroke:#181818;stroke-width:0.5;" width="71.2884" x="130.7768" y="562.0647"/><text fill="#000000" font-family="sans-serif" font-size="12" lengthAdjust="spacing" textLength="51.2884" x="140.7768" y="584.8928">Continue</text><rect fill="#F1F1F1" height="36.3441" rx="12.5" ry="12.5" style="stroke:#181818;stroke-width:0.5;" width="132.9568" x="247.5838" y="562.0647"/><text fill="#000000" font-family="sans-serif" font-size="12" lengthAdjust="spacing" textLength="112.9568" x="257.5838" y="584.8928">Create notes/ folder</text><polygon fill="#F1F1F1" points="240.2416,604.4088,252.2416,616.4088,240.2416,628.4088,228.2416,616.4088,240.2416,604.4088" style="stroke:#181818;stroke-width:0.5;"/><polygon fill="#F1F1F1" points="184.1585,648.4088,296.3247,648.4088,308.3247,660.4088,296.3247,672.4088,184.1585,672.4088,172.1585,660.4088,184.1585,648.4088" style="stroke:#181818;stroke-width:0.5;"/><text fill="#000000" font-family="sans-serif" font-size="11" lengthAdjust="spacing" textLength="112.1662" x="184.1585" y="664.6768">archive/ folder exists?</text><text fill="#000000" font-family="sans-serif" font-size="11" lengthAdjust="spacing" textLength="17.0829" x="155.0756" y="657.1858">yes</text><text fill="#000000" font-family="sans-serif" font-size="11" lengthAdjust="spacing" textLength="13.4529" x="308.3247" y="657.1858">no</text><rect fill="#F1F1F1" height="36.3441" rx="12.5" ry="12.5" style="stroke:#181818;stroke-width:0.5;" width="71.2884" x="126.5143" y="682.4088"/><text fill="#000000" font-family="sans-serif" font-size="12" lengthAdjust="spacing" textLength="51.2884" x="136.5143" y="705.2369">Continue</text><rect fill="#F1F1F1" height="36.3441" rx="12.5" ry="12.5" style="stroke:#181818;stroke-width:0.5;" width="142.2569" x="247.1963" y="682.4088"/><text fill="#000000" font-family="sans-serif" font-size="12" lengthAdjust="spacing" textLength="122.2569" x="257.1963" y="705.2369">Create archive/ folder</text><polygon fill="#F1F1F1" points="240.2416,724.7529,252.2416,736.7529,240.2416,748.7529,228.2416,736.7529,240.2416,724.7529" style="stroke:#181818;stroke-width:0.5;"/><polygon fill="#F1F1F1" points="199.1734,768.7529,281.3098,768.7529,293.3098,780.7529,281.3098,792.7529,199.1734,792.7529,187.1734,780.7529,199.1734,768.7529" style="stroke:#181818;stroke-width:0.5;"/><text fill="#000000" font-family="sans-serif" font-size="11" lengthAdjust="spacing" textLength="82.1364" x="199.1734" y="785.0209">index.txt exists?</text><text fill="#000000" font-family="sans-serif" font-size="11" lengthAdjust="spacing" textLength="17.0829" x="170.0905" y="777.5299">yes</text><text fill="#000000" font-family="sans-serif" font-size="11" lengthAdjust="spacing" textLength="13.4529" x="293.3098" y="777.5299">no</text><rect fill="#F1F1F1" height="36.3441" rx="12.5" ry="12.5" style="stroke:#181818;stroke-width:0.5;" width="71.2884" x="141.5292" y="802.7529"/><text fill="#000000" font-family="sans-serif" font-size="12" lengthAdjust="spacing" textLength="51.2884" x="151.5292" y="825.581">Continue</text><rect fill="#F1F1F1" height="36.3441" rx="12.5" ry="12.5" style="stroke:#181818;stroke-width:0.5;" width="109.4966" x="248.5615" y="802.7529"/><text fill="#000000" font-family="sans-serif" font-size="12" lengthAdjust="spacing" textLength="89.4966" x="258.5615" y="825.581">Create index.txt</text><polygon fill="#F1F1F1" points="240.2416,845.097,252.2416,857.097,240.2416,869.097,228.2416,857.097,240.2416,845.097" style="stroke:#181818;stroke-width:0.5;"/><rect fill="#F1F1F1" height="36.3441" rx="12.5" ry="12.5" style="stroke:#181818;stroke-width:0.5;" width="290.158" x="95.1626" y="933.097"/><text fill="#000000" font-family="sans-serif" font-size="12" lengthAdjust="spacing" textLength="270.158" x="105.1626" y="955.9251">For each expected note file in expectedFilesMap</text><polygon fill="#F1F1F1" points="163.3576,989.4411,317.1256,989.4411,329.1256,1001.4411,317.1256,1013.4411,163.3576,1013.4411,151.3576,1001.4411,163.3576,989.4411" style="stroke:#181818;stroke-width:0.5;"/><text fill="#000000" font-family="sans-serif" font-size="11" lengthAdjust="spacing" textLength="153.7679" x="163.3576" y="1005.7091">file exists in correct directory?</text><text fill="#000000" font-family="sans-serif" font-size="11" lengthAdjust="spacing" textLength="17.0829" x="134.2748" y="998.2182">yes</text><text fill="#000000" font-family="sans-serif" font-size="11" lengthAdjust="spacing" textLength="13.4529" x="329.1256" y="998.2182">no</text><rect fill="#F1F1F1" height="36.3441" rx="12.5" ry="12.5" style="stroke:#181818;stroke-width:0.5;" width="71.2884" x="105.7135" y="1023.4411"/><text fill="#000000" font-family="sans-serif" font-size="12" lengthAdjust="spacing" textLength="51.2884" x="115.7135" y="1046.2692">Continue</text><rect fill="#F1F1F1" height="36.3441" rx="12.5" ry="12.5" style="stroke:#181818;stroke-width:0.5;" width="153.069" x="262.5911" y="1023.4411"/><text fill="#000000" font-family="sans-serif" font-size="12" lengthAdjust="spacing" textLength="133.069" x="272.5911" y="1046.2692">Create missing note file</text><polygon fill="#F1F1F1" points="240.2416,1065.7853,252.2416,1077.7853,240.2416,1089.7853,228.2416,1077.7853,240.2416,1065.7853" style="stroke:#181818;stroke-width:0.5;"/><polygon fill="#F1F1F1" points="240.2416,889.097,252.2416,901.097,240.2416,913.097,228.2416,901.097,240.2416,889.097" style="stroke:#181818;stroke-width:0.5;"/><polygon fill="#F1F1F1" points="212.1148,1109.7853,268.3684,1109.7853,280.3684,1121.7853,268.3684,1133.7853,212.1148,1133.7853,200.1148,1121.7853,212.1148,1109.7853" style="stroke:#181818;stroke-width:0.5;"/><text fill="#000000" font-family="sans-serif" font-size="11" lengthAdjust="spacing" textLength="56.2536" x="212.1148" y="1126.0532">more files?</text><rect fill="#F1F1F1" height="36.3441" rx="12.5" ry="12.5" style="stroke:#181818;stroke-width:0.5;" width="252.7537" x="113.8648" y="1153.7853"/><text fill="#000000" font-family="sans-serif" font-size="12" lengthAdjust="spacing" textLength="232.7537" x="123.8648" y="1176.6133">Detect orphan files in notes/ and archive/</text><polygon fill="#F1F1F1" points="199.5254,1210.1294,280.9578,1210.1294,292.9578,1222.1294,280.9578,1234.1294,199.5254,1234.1294,187.5254,1222.1294,199.5254,1210.1294" style="stroke:#181818;stroke-width:0.5;"/><text fill="#000000" font-family="sans-serif" font-size="11" lengthAdjust="spacing" textLength="81.4324" x="199.5254" y="1226.3973">orphans found?</text><text fill="#000000" font-family="sans-serif" font-size="11" lengthAdjust="spacing" textLength="17.0829" x="170.4425" y="1218.9064">yes</text><text fill="#000000" font-family="sans-serif" font-size="11" lengthAdjust="spacing" textLength="13.4529" x="292.9578" y="1218.9064">no</text><rect fill="#F1F1F1" height="36.3441" rx="12.5" ry="12.5" style="stroke:#181818;stroke-width:0.5;" width="143.3009" x="104.9439" y="1244.1294"/><text fill="#000000" font-family="sans-serif" font-size="12" lengthAdjust="spacing" textLength="123.3009" x="114.9439" y="1266.9575">Log orphan filenames</text><rect fill="#F1F1F1" height="36.3441" rx="12.5" ry="12.5" style="stroke:#181818;stroke-width:0.5;" width="71.2884" x="268.2447" y="1244.1294"/><text fill="#000000" font-family="sans-serif" font-size="12" lengthAdjust="spacing" textLength="51.2884" x="278.2447" y="1266.9575">Continue</text><polygon fill="#F1F1F1" points="240.2416,1286.4735,252.2416,1298.4735,240.2416,1310.4735,228.2416,1298.4735,240.2416,1286.4735" style="stroke:#181818;stroke-width:0.5;"/><ellipse cx="240.2416" cy="1341.4735" fill="none" rx="11" ry="11" style="stroke:#222222;stroke-width:1;"/><ellipse cx="240.2416" cy="1341.4735" fill="#222222" rx="6" ry="6" style="stroke:#222222;stroke-width:1;"/><line style="stroke:#181818;stroke-width:1;" x1="240.2416" x2="240.2416" y1="30" y2="50"/><polygon fill="#181818" points="236.2416,40,240.2416,50,244.2416,40,240.2416,44" style="stroke:#181818;stroke-width:1;"/><line style="stroke:#181818;stroke-width:1;" x1="240.2416" x2="240.2416" y1="86.3441" y2="106.3441"/><polygon fill="#181818" points="236.2416,96.3441,240.2416,106.3441,244.2416,96.3441,240.2416,100.3441" style="stroke:#181818;stroke-width:1;"/><line style="stroke:#181818;stroke-width:1;" x1="240.2416" x2="240.2416" y1="142.6882" y2="162.6882"/><polygon fill="#181818" points="236.2416,152.6882,240.2416,162.6882,244.2416,152.6882,240.2416,156.6882" style="stroke:#181818;stroke-width:1;"/><line style="stroke:#181818;stroke-width:1;" x1="240.2416" x2="240.2416" y1="199.0323" y2="219.0323"/><polygon fill="#181818" points="236.2416,209.0323,240.2416,219.0323,244.2416,209.0323,240.2416,213.0323" style="stroke:#181818;stroke-width:1;"/><line style="stroke:#181818;stroke-width:1;" x1="313.2923" x2="313.2923" y1="345.7206" y2="365.7206"/><polygon fill="#181818" points="309.2923,355.7206,313.2923,365.7206,317.2923,355.7206,313.2923,359.7206" style="stroke:#181818;stroke-width:1;"/><line style="stroke:#181818;stroke-width:1;" x1="177.191" x2="167.191" y1="287.3765" y2="287.3765"/><line style="stroke:#181818;stroke-width:1;" x1="167.191" x2="167.191" y1="287.3765" y2="309.3765"/><polygon fill="#181818" points="163.191,299.3765,167.191,309.3765,171.191,299.3765,167.191,303.3765" style="stroke:#181818;stroke-width:1;"/><line style="stroke:#181818;stroke-width:1;" x1="303.2923" x2="313.2923" y1="287.3765" y2="287.3765"/><line style="stroke:#181818;stroke-width:1;" x1="313.2923" x2="313.2923" y1="287.3765" y2="309.3765"/><polygon fill="#181818" points="309.2923,299.3765,313.2923,309.3765,317.2923,299.3765,313.2923,303.3765" style="stroke:#181818;stroke-width:1;"/><line style="stroke:#181818;stroke-width:1;" x1="167.191" x2="167.191" y1="345.7206" y2="392.7206"/><line style="stroke:#181818;stroke-width:1;" x1="167.191" x2="240.2416" y1="392.7206" y2="392.7206"/><line style="stroke:#181818;stroke-width:1;" x1="240.2416" x2="240.2416" y1="392.7206" y2="407.7206"/><polygon fill="#181818" points="236.2416,397.7206,240.2416,407.7206,244.2416,397.7206,240.2416,401.7206" style="stroke:#181818;stroke-width:1;"/><line style="stroke:#181818;stroke-width:1;" x1="240.2416" x2="240.2416" y1="255.3765" y2="275.3765"/><polygon fill="#181818" points="236.2416,265.3765,240.2416,275.3765,244.2416,265.3765,240.2416,269.3765" style="stroke:#181818;stroke-width:1;"/><line style="stroke:#181818;stroke-width:1;" x1="166.389" x2="156.389" y1="419.7206" y2="419.7206"/><line style="stroke:#181818;stroke-width:1;" x1="156.389" x2="156.389" y1="419.7206" y2="441.7206"/><polygon fill="#181818" points="152.389,431.7206,156.389,441.7206,160.389,431.7206,156.389,435.7206" style="stroke:#181818;stroke-width:1;"/><line style="stroke:#181818;stroke-width:1;" x1="314.0942" x2="324.0942" y1="419.7206" y2="419.7206"/><line style="stroke:#181818;stroke-width:1;" x1="324.0942" x2="324.0942" y1="419.7206" y2="441.7206"/><polygon fill="#181818" points="320.0942,431.7206,324.0942,441.7206,328.0942,431.7206,324.0942,435.7206" style="stroke:#181818;stroke-width:1;"/><line style="stroke:#181818;stroke-width:1;" x1="156.389" x2="156.389" y1="478.0647" y2="496.0647"/><line style="stroke:#181818;stroke-width:1;" x1="156.389" x2="228.2416" y1="496.0647" y2="496.0647"/><polygon fill="#181818" points="218.2416,492.0647,228.2416,496.0647,218.2416,500.0647,222.2416,496.0647" style="stroke:#181818;stroke-width:1;"/><line style="stroke:#181818;stroke-width:1;" x1="324.0942" x2="324.0942" y1="478.0647" y2="496.0647"/><line style="stroke:#181818;stroke-width:1;" x1="324.0942" x2="252.2416" y1="496.0647" y2="496.0647"/><polygon fill="#181818" points="262.2416,492.0647,252.2416,496.0647,262.2416,500.0647,258.2416,496.0647" style="stroke:#181818;stroke-width:1;"/><line style="stroke:#181818;stroke-width:1;" x1="176.421" x2="166.421" y1="540.0647" y2="540.0647"/><line style="stroke:#181818;stroke-width:1;" x1="166.421" x2="166.421" y1="540.0647" y2="562.0647"/><polygon fill="#181818" points="162.421,552.0647,166.421,562.0647,170.421,552.0647,166.421,556.0647" style="stroke:#181818;stroke-width:1;"/><line style="stroke:#181818;stroke-width:1;" x1="304.0622" x2="314.0622" y1="540.0647" y2="540.0647"/><line style="stroke:#181818;stroke-width:1;" x1="314.0622" x2="314.0622" y1="540.0647" y2="562.0647"/><polygon fill="#181818" points="310.0622,552.0647,314.0622,562.0647,318.0622,552.0647,314.0622,556.0647" style="stroke:#181818;stroke-width:1;"/><line style="stroke:#181818;stroke-width:1;" x1="166.421" x2="166.421" y1="598.4088" y2="616.4088"/><line style="stroke:#181818;stroke-width:1;" x1="166.421" x2="228.2416" y1="616.4088" y2="616.4088"/><polygon fill="#181818" points="218.2416,612.4088,228.2416,616.4088,218.2416,620.4088,222.2416,616.4088" style="stroke:#181818;stroke-width:1;"/><line style="stroke:#181818;stroke-width:1;" x1="314.0622" x2="314.0622" y1="598.4088" y2="616.4088"/><line style="stroke:#181818;stroke-width:1;" x1="314.0622" x2="252.2416" y1="616.4088" y2="616.4088"/><polygon fill="#181818" points="262.2416,612.4088,252.2416,616.4088,262.2416,620.4088,258.2416,616.4088" style="stroke:#181818;stroke-width:1;"/><line style="stroke:#181818;stroke-width:1;" x1="240.2416" x2="240.2416" y1="508.0647" y2="528.0647"/><polygon fill="#181818" points="236.2416,518.0647,240.2416,528.0647,244.2416,518.0647,240.2416,522.0647" style="stroke:#181818;stroke-width:1;"/><line style="stroke:#181818;stroke-width:1;" x1="172.1585" x2="162.1585" y1="660.4088" y2="660.4088"/><line style="stroke:#181818;stroke-width:1;" x1="162.1585" x2="162.1585" y1="660.4088" y2="682.4088"/><polygon fill="#181818" points="158.1585,672.4088,162.1585,682.4088,166.1585,672.4088,162.1585,676.4088" style="stroke:#181818;stroke-width:1;"/><line style="stroke:#181818;stroke-width:1;" x1="308.3247" x2="318.3247" y1="660.4088" y2="660.4088"/><line style="stroke:#181818;stroke-width:1;" x1="318.3247" x2="318.3247" y1="660.4088" y2="682.4088"/><polygon fill="#181818" points="314.3247,672.4088,318.3247,682.4088,322.3247,672.4088,318.3247,676.4088" style="stroke:#181818;stroke-width:1;"/><line style="stroke:#181818;stroke-width:1;" x1="162.1585" x2="162.1585" y1="718.7529" y2="736.7529"/><line style="stroke:#181818;stroke-width:1;" x1="162.1585" x2="228.2416" y1="736.7529" y2="736.7529"/><polygon fill="#181818" points="218.2416,732.7529,228.2416,736.7529,218.2416,740.7529,222.2416,736.7529" style="stroke:#181818;stroke-width:1;"/><line style="stroke:#181818;stroke-width:1;" x1="318.3247" x2="318.3247" y1="718.7529" y2="736.7529"/><line style="stroke:#181818;stroke-width:1;" x1="318.3247" x2="252.2416" y1="736.7529" y2="736.7529"/><polygon fill="#181818" points="262.2416,732.7529,252.2416,736.7529,262.2416,740.7529,258.2416,736.7529" style="stroke:#181818;stroke-width:1;"/><line style="stroke:#181818;stroke-width:1;" x1="240.2416" x2="240.2416" y1="628.4088" y2="648.4088"/><polygon fill="#181818" points="236.2416,638.4088,240.2416,648.4088,244.2416,638.4088,240.2416,642.4088" style="stroke:#181818;stroke-width:1;"/><line style="stroke:#181818;stroke-width:1;" x1="187.1734" x2="177.1734" y1="780.7529" y2="780.7529"/><line style="stroke:#181818;stroke-width:1;" x1="177.1734" x2="177.1734" y1="780.7529" y2="802.7529"/><polygon fill="#181818" points="173.1734,792.7529,177.1734,802.7529,181.1734,792.7529,177.1734,796.7529" style="stroke:#181818;stroke-width:1;"/><line style="stroke:#181818;stroke-width:1;" x1="293.3098" x2="303.3098" y1="780.7529" y2="780.7529"/><line style="stroke:#181818;stroke-width:1;" x1="303.3098" x2="303.3098" y1="780.7529" y2="802.7529"/><polygon fill="#181818" points="299.3098,792.7529,303.3098,802.7529,307.3098,792.7529,303.3098,796.7529" style="stroke:#181818;stroke-width:1;"/><line style="stroke:#181818;stroke-width:1;" x1="177.1734" x2="177.1734" y1="839.097" y2="857.097"/><line style="stroke:#181818;stroke-width:1;" x1="177.1734" x2="228.2416" y1="857.097" y2="857.097"/><polygon fill="#181818" points="218.2416,853.097,228.2416,857.097,218.2416,861.097,222.2416,857.097" style="stroke:#181818;stroke-width:1;"/><line style="stroke:#181818;stroke-width:1;" x1="303.3098" x2="303.3098" y1="839.097" y2="857.097"/><line style="stroke:#181818;stroke-width:1;" x1="303.3098" x2="252.2416" y1="857.097" y2="857.097"/><polygon fill="#181818" points="262.2416,853.097,252.2416,857.097,262.2416,861.097,258.2416,857.097" style="stroke:#181818;stroke-width:1;"/><line style="stroke:#181818;stroke-width:1;" x1="240.2416" x2="240.2416" y1="748.7529" y2="768.7529"/><polygon fill="#181818" points="236.2416,758.7529,240.2416,768.7529,244.2416,758.7529,240.2416,762.7529" style="stroke:#181818;stroke-width:1;"/><line style="stroke:#181818;stroke-width:1;" x1="151.3576" x2="141.3576" y1="1001.4411" y2="1001.4411"/><line style="stroke:#181818;stroke-width:1;" x1="141.3576" x2="141.3576" y1="1001.4411" y2="1023.4411"/><polygon fill="#181818" points="137.3576,1013.4411,141.3576,1023.4411,145.3576,1013.4411,141.3576,1017.4411" style="stroke:#181818;stroke-width:1;"/><line style="stroke:#181818;stroke-width:1;" x1="329.1256" x2="339.1256" y1="1001.4411" y2="1001.4411"/><line style="stroke:#181818;stroke-width:1;" x1="339.1256" x2="339.1256" y1="1001.4411" y2="1023.4411"/><polygon fill="#181818" points="335.1256,1013.4411,339.1256,1023.4411,343.1256,1013.4411,339.1256,1017.4411" style="stroke:#181818;stroke-width:1;"/><line style="stroke:#181818;stroke-width:1;" x1="141.3576" x2="141.3576" y1="1059.7853" y2="1077.7853"/><line style="stroke:#181818;stroke-width:1;" x1="141.3576" x2="228.2416" y1="1077.7853" y2="1077.7853"/><polygon fill="#181818" points="218.2416,1073.7853,228.2416,1077.7853,218.2416,1081.7853,222.2416,1077.7853" style="stroke:#181818;stroke-width:1;"/><line style="stroke:#181818;stroke-width:1;" x1="339.1256" x2="339.1256" y1="1059.7853" y2="1077.7853"/><line style="stroke:#181818;stroke-width:1;" x1="339.1256" x2="252.2416" y1="1077.7853" y2="1077.7853"/><polygon fill="#181818" points="262.2416,1073.7853,252.2416,1077.7853,262.2416,1081.7853,258.2416,1077.7853" style="stroke:#181818;stroke-width:1;"/><line style="stroke:#181818;stroke-width:1;" x1="240.2416" x2="240.2416" y1="969.4411" y2="989.4411"/><polygon fill="#181818" points="236.2416,979.4411,240.2416,989.4411,244.2416,979.4411,240.2416,983.4411" style="stroke:#181818;stroke-width:1;"/><line style="stroke:#181818;stroke-width:1;" x1="240.2416" x2="240.2416" y1="913.097" y2="933.097"/><polygon fill="#181818" points="236.2416,923.097,240.2416,933.097,244.2416,923.097,240.2416,927.097" style="stroke:#181818;stroke-width:1;"/><line style="stroke:#181818;stroke-width:1;" x1="280.3684" x2="437.6601" y1="1121.7853" y2="1121.7853"/><polygon fill="#181818" points="433.6601,1013.9411,437.6601,1003.9411,441.6601,1013.9411,437.6601,1009.9411" style="stroke:#181818;stroke-width:1;"/><line style="stroke:#181818;stroke-width:1;" x1="437.6601" x2="437.6601" y1="901.097" y2="1121.7853"/><line style="stroke:#181818;stroke-width:1;" x1="437.6601" x2="252.2416" y1="901.097" y2="901.097"/><polygon fill="#181818" points="262.2416,897.097,252.2416,901.097,262.2416,905.097,258.2416,901.097" style="stroke:#181818;stroke-width:1;"/><line style="stroke:#181818;stroke-width:1;" x1="240.2416" x2="240.2416" y1="1089.7853" y2="1109.7853"/><polygon fill="#181818" points="236.2416,1099.7853,240.2416,1109.7853,244.2416,1099.7853,240.2416,1103.7853" style="stroke:#181818;stroke-width:1;"/><line style="stroke:#181818;stroke-width:1;" x1="240.2416" x2="240.2416" y1="869.097" y2="889.097"/><polygon fill="#181818" points="236.2416,879.097,240.2416,889.097,244.2416,879.097,240.2416,883.097" style="stroke:#181818;stroke-width:1;"/><line style="stroke:#181818;stroke-width:1;" x1="240.2416" x2="240.2416" y1="1133.7853" y2="1153.7853"/><polygon fill="#181818" points="236.2416,1143.7853,240.2416,1153.7853,244.2416,1143.7853,240.2416,1147.7853" style="stroke:#181818;stroke-width:1;"/><line style="stroke:#181818;stroke-width:1;" x1="187.5254" x2="176.5943" y1="1222.1294" y2="1222.1294"/><line style="stroke:#181818;stroke-width:1;" x1="176.5943" x2="176.5943" y1="1222.1294" y2="1244.1294"/><polygon fill="#181818" points="172.5943,1234.1294,176.5943,1244.1294,180.5943,1234.1294,176.5943,1238.1294" style="stroke:#181818;stroke-width:1;"/><line style="stroke:#181818;stroke-width:1;" x1="292.9578" x2="303.8889" y1="1222.1294" y2="1222.1294"/><line style="stroke:#181818;stroke-width:1;" x1="303.8889" x2="303.8889" y1="1222.1294" y2="1244.1294"/><polygon fill="#181818" points="299.8889,1234.1294,303.8889,1244.1294,307.8889,1234.1294,303.8889,1238.1294" style="stroke:#181818;stroke-width:1;"/><line style="stroke:#181818;stroke-width:1;" x1="176.5943" x2="176.5943" y1="1280.4735" y2="1298.4735"/><line style="stroke:#181818;stroke-width:1;" x1="176.5943" x2="228.2416" y1="1298.4735" y2="1298.4735"/><polygon fill="#181818" points="218.2416,1294.4735,228.2416,1298.4735,218.2416,1302.4735,222.2416,1298.4735" style="stroke:#181818;stroke-width:1;"/><line style="stroke:#181818;stroke-width:1;" x1="303.8889" x2="303.8889" y1="1280.4735" y2="1298.4735"/><line style="stroke:#181818;stroke-width:1;" x1="303.8889" x2="252.2416" y1="1298.4735" y2="1298.4735"/><polygon fill="#181818" points="262.2416,1294.4735,252.2416,1298.4735,262.2416,1302.4735,258.2416,1298.4735" style="stroke:#181818;stroke-width:1;"/><line style="stroke:#181818;stroke-width:1;" x1="240.2416" x2="240.2416" y1="1190.1294" y2="1210.1294"/><polygon fill="#181818" points="236.2416,1200.1294,240.2416,1210.1294,244.2416,1200.1294,240.2416,1204.1294" style="stroke:#181818;stroke-width:1;"/><line style="stroke:#181818;stroke-width:1;" x1="240.2416" x2="240.2416" y1="1310.4735" y2="1330.4735"/><polygon fill="#181818" points="236.2416,1320.4735,240.2416,1330.4735,244.2416,1320.4735,240.2416,1324.4735" style="stroke:#181818;stroke-width:1;"/><!--SRC=[fLD1ReCm4Bpp2X-9LANtSEWXRQfAJLGb_O255x04Dbel2SdhkxOH2Q6dX0C8TZmpExiuaaX9ibhBkXP7MMib2VRGsXJvjfCDBB9ajGT23KSGsYZeVoHLeh0eF8Ihdq02-XPo0hNHDRYjR4M1jX4xIt00rCnx0Sm66Oyvd1r1ivL6be3BM-43OPTJXp0wU9cniwT45o9TNe08whKrXIuPfHsvjuMW2en8p-0MYU1hnNNIfeCiWTg1I8qT2hyLsfFuCa7VYt_qERIahSa2m95j4p1A5r7FEtAQB9wv_re1Fg2vHk1EGtO3INOhOJWoz_eq_OHc8Y0nh_GHdfUu8vg8X3rPKa-FquyK8p57nfK8sl3wWSohSJL2nwBW1U6JiuM9u_JE0YAQyi3S8Z9IAEqVFDYvqpkt_dNg-DPrevtJfhow6Gw43c83ubHv3sbZCK8u7Vu3tu6y4Ojj9KtyxWqEWvH6ZO5d8U88T9n-PzG_-NxRyfRCy8_avbbVXn0pzXl_1m00]--></g></svg>