<svg xmlns="http://www.w3.org/2000/svg" xmlns:xlink="http://www.w3.org/1999/xlink" contentStyleType="text/css" data-diagram-type="CLASS" height="307px" preserveAspectRatio="none" style="width:665px;height:307px;background:#FFFFFF;" version="1.1" viewBox="0 0 665 307" width="665px" zoomAndPan="magnify"><defs/><g><!--class Command--><g class="entity" data-entity="Command" data-source-line="3" data-uid="ent0002" id="entity_Command"><rect fill="#F1F1F1" height="83.2038" rx="2.5" ry="2.5" style="stroke:#181818;stroke-width:0.5;" width="532.6998" x="49" y="112"/><text fill="#000000" font-family="sans-serif" font-size="14" font-style="italic" lengthAdjust="spacing" textLength="64.7638" x="282.968" y="131.9659">Command</text><line style="stroke:#181818;stroke-width:0.5;" x1="50" x2="580.6998" y1="141.0679" y2="141.0679"/><line style="stroke:#181818;stroke-width:0.5;" x1="50" x2="580.6998" y1="149.0679" y2="149.0679"/><text fill="#000000" font-family="sans-serif" font-size="14" font-style="italic" lengthAdjust="spacing" textLength="520.6998" x="55" y="168.0339">+execute(notes : ArrayList&lt;Note&gt;, tags : List&lt;String&gt;, ui : UI, storage : Storage) : void</text><text fill="#000000" font-family="sans-serif" font-size="14" lengthAdjust="spacing" textLength="115.1776" x="55" y="187.1018">+isExit() : boolean</text></g><!--class InitCommand--><g class="entity" data-entity="InitCommand" data-source-line="7" data-uid="ent0003" id="entity_InitCommand"><rect fill="#F1F1F1" height="45.0679" rx="2.5" ry="2.5" style="stroke:#181818;stroke-width:0.5;" width="96.6777" x="7" y="7"/><text fill="#000000" font-family="sans-serif" font-size="14" lengthAdjust="spacing" textLength="90.6777" x="10" y="26.9659">InitCommand</text><line style="stroke:#181818;stroke-width:0.5;" x1="8" x2="102.6777" y1="36.0679" y2="36.0679"/><line style="stroke:#181818;stroke-width:0.5;" x1="8" x2="102.6777" y1="44.0679" y2="44.0679"/></g><!--class ChangeRepoCommand--><g class="entity" data-entity="ChangeRepoCommand" data-source-line="8" data-uid="ent0004" id="entity_ChangeRepoCommand"><rect fill="#F1F1F1" height="45.0679" rx="2.5" ry="2.5" style="stroke:#181818;stroke-width:0.5;" width="158.8094" x="139" y="7"/><text fill="#000000" font-family="sans-serif" font-size="14" lengthAdjust="spacing" textLength="152.8094" x="142" y="26.9659">ChangeRepoCommand</text><line style="stroke:#181818;stroke-width:0.5;" x1="140" x2="296.8094" y1="36.0679" y2="36.0679"/><line style="stroke:#181818;stroke-width:0.5;" x1="140" x2="296.8094" y1="44.0679" y2="44.0679"/></g><!--class CurrentRepoCommand--><g class="entity" data-entity="CurrentRepoCommand" data-source-line="9" data-uid="ent0005" id="entity_CurrentRepoCommand"><rect fill="#F1F1F1" height="45.0679" rx="2.5" ry="2.5" style="stroke:#181818;stroke-width:0.5;" width="158.9634" x="333" y="7"/><text fill="#000000" font-family="sans-serif" font-size="14" lengthAdjust="spacing" textLength="152.9634" x="336" y="26.9659">CurrentRepoCommand</text><line style="stroke:#181818;stroke-width:0.5;" x1="334" x2="490.9634" y1="36.0679" y2="36.0679"/><line style="stroke:#181818;stroke-width:0.5;" x1="334" x2="490.9634" y1="44.0679" y2="44.0679"/></g><!--class ListRepoCommand--><g class="entity" data-entity="ListRepoCommand" data-source-line="10" data-uid="ent0006" id="entity_ListRepoCommand"><rect fill="#F1F1F1" height="45.0679" rx="2.5" ry="2.5" style="stroke:#181818;stroke-width:0.5;" width="131.0055" x="527" y="7"/><text fill="#000000" font-family="sans-serif" font-size="14" lengthAdjust="spacing" textLength="125.0055" x="530" y="26.9659">ListRepoCommand</text><line style="stroke:#181818;stroke-width:0.5;" x1="528" x2="657.0055" y1="36.0679" y2="36.0679"/><line style="stroke:#181818;stroke-width:0.5;" x1="528" x2="657.0055" y1="44.0679" y2="44.0679"/></g><!--class ExitCommand--><g class="entity" data-entity="ExitCommand" data-source-line="11" data-uid="ent0007" id="entity_ExitCommand"><rect fill="#F1F1F1" height="45.0679" rx="2.5" ry="2.5" style="stroke:#181818;stroke-width:0.5;" width="98.4697" x="198.5" y="255"/><text fill="#000000" font-family="sans-serif" font-size="14" lengthAdjust="spacing" textLength="92.4697" x="201.5" y="274.9659">ExitCommand</text><line style="stroke:#181818;stroke-width:0.5;" x1="199.5" x2="295.9697" y1="284.0679" y2="284.0679"/><line style="stroke:#181818;stroke-width:0.5;" x1="199.5" x2="295.9697" y1="292.0679" y2="292.0679"/></g><!--class HelpCommand--><g class="entity" data-entity="HelpCommand" data-source-line="12" data-uid="ent0008" id="entity_HelpCommand"><rect fill="#F1F1F1" height="45.0679" rx="2.5" ry="2.5" style="stroke:#181818;stroke-width:0.5;" width="105.1056" x="332" y="255"/><text fill="#000000" font-family="sans-serif" font-size="14" lengthAdjust="spacing" textLength="99.1056" x="335" y="274.9659">HelpCommand</text><line style="stroke:#181818;stroke-width:0.5;" x1="333" x2="436.1056" y1="284.0679" y2="284.0679"/><line style="stroke:#181818;stroke-width:0.5;" x1="333" x2="436.1056" y1="292.0679" y2="292.0679"/></g><!--link InitCommand to Command--><g class="link" data-entity-1="InitCommand" data-entity-2="Command" data-source-line="14" data-uid="lnk9" id="link_InitCommand_Command"><path codeLine="14" d="M101.38,52.03 C136.66,68.58 170.1344,84.2944 212.8044,104.3144" fill="none" id="InitCommand-to-Command" style="stroke:#181818;stroke-width:1;"/><polygon fill="none" points="229.1,111.96,215.353,98.8826,210.2559,109.7463,229.1,111.96" style="stroke:#181818;stroke-width:1;"/></g><!--link ChangeRepoCommand to Command--><g class="link" data-entity-1="ChangeRepoCommand" data-entity-2="Command" data-source-line="15" data-uid="lnk10" id="link_ChangeRepoCommand_Command"><path codeLine="15" d="M235.62,52.03 C248.78,68.58 256.1467,77.8515 272.0667,97.8715" fill="none" id="ChangeRepoCommand-to-Command" style="stroke:#181818;stroke-width:1;"/><polygon fill="none" points="283.27,111.96,276.7629,94.137,267.3706,101.6059,283.27,111.96" style="stroke:#181818;stroke-width:1;"/></g><!--link CurrentRepoCommand to Command--><g class="link" data-entity-1="CurrentRepoCommand" data-entity-2="Command" data-source-line="16" data-uid="lnk11" id="link_CurrentRepoCommand_Command"><path codeLine="16" d="M395.38,52.03 C382.22,68.58 374.8533,77.8515 358.9333,97.8715" fill="none" id="CurrentRepoCommand-to-Command" style="stroke:#181818;stroke-width:1;"/><polygon fill="none" points="347.73,111.96,363.6294,101.6059,354.2371,94.137,347.73,111.96" style="stroke:#181818;stroke-width:1;"/></g><!--link ListRepoCommand to Command--><g class="link" data-entity-1="ListRepoCommand" data-entity-2="Command" data-source-line="17" data-uid="lnk12" id="link_ListRepoCommand_Command"><path codeLine="17" d="M543.62,52.03 C506.03,68.58 469.4833,84.6854 424.0233,104.7054" fill="none" id="ListRepoCommand-to-Command" style="stroke:#181818;stroke-width:1;"/><polygon fill="none" points="407.55,111.96,426.4415,110.1965,421.6051,99.2143,407.55,111.96" style="stroke:#181818;stroke-width:1;"/></g><!--reverse link Command to ExitCommand--><g class="link" data-entity-1="Command" data-entity-2="ExitCommand" data-source-line="19" data-uid="lnk14" id="link_Command_ExitCommand"><path codeLine="19" d="M284.097,210.8429 C272.967,230.8129 268.77,238.34 259.56,254.86" fill="none" id="Command-backto-ExitCommand" style="stroke:#181818;stroke-width:1;"/><polygon fill="none" points="292.86,195.12,278.8561,207.9219,289.338,213.7639,292.86,195.12" style="stroke:#181818;stroke-width:1;"/></g><!--reverse link Command to HelpCommand--><g class="link" data-entity-1="Command" data-entity-2="HelpCommand" data-source-line="20" data-uid="lnk16" id="link_Command_HelpCommand"><path codeLine="20" d="M347.3386,210.7893 C358.6286,230.7593 362.92,238.34 372.26,254.86" fill="none" id="Command-backto-HelpCommand" style="stroke:#181818;stroke-width:1;"/><polygon fill="none" points="338.48,195.12,342.1155,213.7421,352.5617,207.8364,338.48,195.12" style="stroke:#181818;stroke-width:1;"/></g><!--SRC=[RP31IiGm48RlUOevhhW5po8Boo9OM3nOV81fEdG7sqb9fhgwxhkRsXPgOqwJRtxoVoIyiNJeiGNRO0XxLSzbhvHR9mL_4ToP4rS4bhrjo60PrAFLCGq7rxOe5LmCn7CBbtb_1JgJZUzin2a5k8Uzz_XvvA0Fpv7ijg1O3_mN5R5LwWXxZkWrtq9Gvx6cU2l6wIQExuwhgOd3uvbrCz3IkOPGpDMCKhcmJc8JEPnGQdgXpgruxps9fej1AgL3ur_oH4qt4xFeXQno7v9zx-OVCed2Fv749isinDA0MKX2rdVBtS9sjVe1]--></g></svg>