<svg xmlns="http://www.w3.org/2000/svg" xmlns:xlink="http://www.w3.org/1999/xlink" contentStyleType="text/css" data-diagram-type="CLASS" height="307px" preserveAspectRatio="none" style="width:782px;height:307px;background:#FFFFFF;" version="1.1" viewBox="0 0 782 307" width="782px" zoomAndPan="magnify"><defs/><g><!--class Command--><g class="entity" data-entity="Command" data-source-line="3" data-uid="ent0002" id="entity_Command"><rect fill="#F1F1F1" height="83.2038" rx="2.5" ry="2.5" style="stroke:#181818;stroke-width:0.5;" width="532.6998" x="179.5" y="112"/><text fill="#000000" font-family="sans-serif" font-size="14" font-style="italic" lengthAdjust="spacing" textLength="64.7638" x="413.468" y="131.9659">Command</text><line style="stroke:#181818;stroke-width:0.5;" x1="180.5" x2="711.1998" y1="141.0679" y2="141.0679"/><line style="stroke:#181818;stroke-width:0.5;" x1="180.5" x2="711.1998" y1="149.0679" y2="149.0679"/><text fill="#000000" font-family="sans-serif" font-size="14" font-style="italic" lengthAdjust="spacing" textLength="520.6998" x="185.5" y="168.0339">+execute(notes : ArrayList&lt;Note&gt;, tags : List&lt;String&gt;, ui : UI, storage : Storage) : void</text><text fill="#000000" font-family="sans-serif" font-size="14" lengthAdjust="spacing" textLength="115.1776" x="185.5" y="187.1018">+isExit() : boolean</text></g><!--class DeleteTagFromNoteCommand--><g class="entity" data-entity="DeleteTagFromNoteCommand" data-source-line="8" data-uid="ent0003" id="entity_DeleteTagFromNoteCommand"><rect fill="#F1F1F1" height="45.0679" rx="2.5" ry="2.5" style="stroke:#181818;stroke-width:0.5;" width="208.1032" x="7" y="7"/><text fill="#000000" font-family="sans-serif" font-size="14" lengthAdjust="spacing" textLength="202.1032" x="10" y="26.9659">DeleteTagFromNoteCommand</text><line style="stroke:#181818;stroke-width:0.5;" x1="8" x2="214.1032" y1="36.0679" y2="36.0679"/><line style="stroke:#181818;stroke-width:0.5;" x1="8" x2="214.1032" y1="44.0679" y2="44.0679"/></g><!--class DeleteTagGloballyCommand--><g class="entity" data-entity="DeleteTagGloballyCommand" data-source-line="9" data-uid="ent0004" id="entity_DeleteTagGloballyCommand"><rect fill="#F1F1F1" height="45.0679" rx="2.5" ry="2.5" style="stroke:#181818;stroke-width:0.5;" width="194.5373" x="250.5" y="7"/><text fill="#000000" font-family="sans-serif" font-size="14" lengthAdjust="spacing" textLength="188.5373" x="253.5" y="26.9659">DeleteTagGloballyCommand</text><line style="stroke:#181818;stroke-width:0.5;" x1="251.5" x2="444.0373" y1="36.0679" y2="36.0679"/><line style="stroke:#181818;stroke-width:0.5;" x1="251.5" x2="444.0373" y1="44.0679" y2="44.0679"/></g><!--class ListTagsGlobalCommand--><g class="entity" data-entity="ListTagsGlobalCommand" data-source-line="10" data-uid="ent0005" id="entity_ListTagsGlobalCommand"><rect fill="#F1F1F1" height="45.0679" rx="2.5" ry="2.5" style="stroke:#181818;stroke-width:0.5;" width="170.6254" x="139.5" y="255"/><text fill="#000000" font-family="sans-serif" font-size="14" lengthAdjust="spacing" textLength="164.6254" x="142.5" y="274.9659">ListTagsGlobalCommand</text><line style="stroke:#181818;stroke-width:0.5;" x1="140.5" x2="309.1254" y1="284.0679" y2="284.0679"/><line style="stroke:#181818;stroke-width:0.5;" x1="140.5" x2="309.1254" y1="292.0679" y2="292.0679"/></g><!--class ListTagsSingleNoteCommand--><g class="entity" data-entity="ListTagsSingleNoteCommand" data-source-line="11" data-uid="ent0006" id="entity_ListTagsSingleNoteCommand"><rect fill="#F1F1F1" height="45.0679" rx="2.5" ry="2.5" style="stroke:#181818;stroke-width:0.5;" width="200.4033" x="346" y="255"/><text fill="#000000" font-family="sans-serif" font-size="14" lengthAdjust="spacing" textLength="194.4033" x="349" y="274.9659">ListTagsSingleNoteCommand</text><line style="stroke:#181818;stroke-width:0.5;" x1="347" x2="545.4033" y1="284.0679" y2="284.0679"/><line style="stroke:#181818;stroke-width:0.5;" x1="347" x2="545.4033" y1="292.0679" y2="292.0679"/></g><!--class NewTagCommand--><g class="entity" data-entity="NewTagCommand" data-source-line="12" data-uid="ent0007" id="entity_NewTagCommand"><rect fill="#F1F1F1" height="45.0679" rx="2.5" ry="2.5" style="stroke:#181818;stroke-width:0.5;" width="128.4015" x="481" y="7"/><text fill="#000000" font-family="sans-serif" font-size="14" lengthAdjust="spacing" textLength="122.4015" x="484" y="26.9659">NewTagCommand</text><line style="stroke:#181818;stroke-width:0.5;" x1="482" x2="608.4015" y1="36.0679" y2="36.0679"/><line style="stroke:#181818;stroke-width:0.5;" x1="482" x2="608.4015" y1="44.0679" y2="44.0679"/></g><!--class RenameTagCommand--><g class="entity" data-entity="RenameTagCommand" data-source-line="13" data-uid="ent0008" id="entity_RenameTagCommand"><rect fill="#F1F1F1" height="45.0679" rx="2.5" ry="2.5" style="stroke:#181818;stroke-width:0.5;" width="152.9574" x="581.5" y="255"/><text fill="#000000" font-family="sans-serif" font-size="14" lengthAdjust="spacing" textLength="146.9574" x="584.5" y="274.9659">RenameTagCommand</text><line style="stroke:#181818;stroke-width:0.5;" x1="582.5" x2="733.4574" y1="284.0679" y2="284.0679"/><line style="stroke:#181818;stroke-width:0.5;" x1="582.5" x2="733.4574" y1="292.0679" y2="292.0679"/></g><!--class TagNoteCommand--><g class="entity" data-entity="TagNoteCommand" data-source-line="14" data-uid="ent0009" id="entity_TagNoteCommand"><rect fill="#F1F1F1" height="45.0679" rx="2.5" ry="2.5" style="stroke:#181818;stroke-width:0.5;" width="130.9215" x="644.5" y="7"/><text fill="#000000" font-family="sans-serif" font-size="14" lengthAdjust="spacing" textLength="124.9215" x="647.5" y="26.9659">TagNoteCommand</text><line style="stroke:#181818;stroke-width:0.5;" x1="645.5" x2="774.4215" y1="36.0679" y2="36.0679"/><line style="stroke:#181818;stroke-width:0.5;" x1="645.5" x2="774.4215" y1="44.0679" y2="44.0679"/></g><!--link DeleteTagFromNoteCommand to Command--><g class="link" data-entity-1="DeleteTagFromNoteCommand" data-entity-2="Command" data-source-line="16" data-uid="lnk10" id="link_DeleteTagFromNoteCommand_Command"><path codeLine="16" d="M170.12,52.03 C215.58,68.58 262.7761,85.7822 317.7661,105.8022" fill="none" id="DeleteTagFromNoteCommand-to-Command" style="stroke:#181818;stroke-width:1;"/><polygon fill="none" points="334.68,111.96,319.8187,100.1642,315.7135,111.4402,334.68,111.96" style="stroke:#181818;stroke-width:1;"/></g><!--link DeleteTagGloballyCommand to Command--><g class="link" data-entity-1="DeleteTagGloballyCommand" data-entity-2="Command" data-source-line="17" data-uid="lnk11" id="link_DeleteTagGloballyCommand_Command"><path codeLine="17" d="M365.29,52.03 C378.59,68.58 386.0782,77.9063 402.1582,97.9263" fill="none" id="DeleteTagGloballyCommand-to-Command" style="stroke:#181818;stroke-width:1;"/><polygon fill="none" points="413.43,111.96,406.8361,94.169,397.4802,101.6836,413.43,111.96" style="stroke:#181818;stroke-width:1;"/></g><!--reverse link Command to ListTagsSingleNoteCommand--><g class="link" data-entity-1="Command" data-entity-2="ListTagsSingleNoteCommand" data-source-line="18" data-uid="lnk13" id="link_Command_ListTagsSingleNoteCommand"><path codeLine="18" d="M446,213.12 C446,233.09 446,238.34 446,254.86" fill="none" id="Command-backto-ListTagsSingleNoteCommand" style="stroke:#181818;stroke-width:1;"/><polygon fill="none" points="446,195.12,440,213.12,452,213.12,446,195.12" style="stroke:#181818;stroke-width:1;"/></g><!--link NewTagCommand to Command--><g class="link" data-entity-1="NewTagCommand" data-entity-2="Command" data-source-line="19" data-uid="lnk14" id="link_NewTagCommand_Command"><path codeLine="19" d="M527.53,52.03 C514.1,68.58 506.4938,77.9644 490.2438,97.9844" fill="none" id="NewTagCommand-to-Command" style="stroke:#181818;stroke-width:1;"/><polygon fill="none" points="478.9,111.96,494.9024,101.7657,485.5853,94.2031,478.9,111.96" style="stroke:#181818;stroke-width:1;"/></g><!--reverse link Command to RenameTagCommand--><g class="link" data-entity-1="Command" data-entity-2="RenameTagCommand" data-source-line="20" data-uid="lnk16" id="link_Command_RenameTagCommand"><path codeLine="20" d="M532.1898,204.1003 C566.8798,224.0703 591.69,238.34 620.4,254.86" fill="none" id="Command-backto-RenameTagCommand" style="stroke:#181818;stroke-width:1;"/><polygon fill="none" points="516.59,195.12,529.1963,209.3003,535.1832,198.9004,516.59,195.12" style="stroke:#181818;stroke-width:1;"/></g><!--link TagNoteCommand to Command--><g class="link" data-entity-1="TagNoteCommand" data-entity-2="Command" data-source-line="21" data-uid="lnk17" id="link_TagNoteCommand_Command"><path codeLine="21" d="M663.41,52.03 C627.59,68.58 593.4002,84.3903 550.0702,104.4103" fill="none" id="TagNoteCommand-to-Command" style="stroke:#181818;stroke-width:1;"/><polygon fill="none" points="533.73,111.96,552.5868,109.857,547.5536,98.9635,533.73,111.96" style="stroke:#181818;stroke-width:1;"/></g><!--reverse link Command to ListTagsGlobalCommand--><g class="link" data-entity-1="Command" data-entity-2="ListTagsGlobalCommand" data-source-line="22" data-uid="lnk19" id="link_Command_ListTagsGlobalCommand"><path codeLine="22" d="M356.6532,203.822 C320.4932,223.792 294.13,238.34 264.19,254.86" fill="none" id="Command-backto-ListTagsGlobalCommand" style="stroke:#181818;stroke-width:1;"/><polygon fill="none" points="372.41,195.12,353.7526,198.5697,359.5539,209.0742,372.41,195.12" style="stroke:#181818;stroke-width:1;"/></g><!--SRC=[TP3BJiCm44Nt_efP5j58h16gLF5I9TG5WG-OEADWuKTbJsXBwRyp8QrK9yGh-zpnpB7Jf_4RZEX0MqnfoHnDrJAjTF2b-IQuKH-c9j0cQaiAgyGHDVVLS1-SGr_3GO6iQpYSyoFGZhJqcVd0bE0MbZ7Y_iKalbiBMSo1iUdu7ofbgcy4jaRG-seEYKF4XkHKzhihsNu5KvyccVIuCpphQ1M29VJgg5HlzK2McDwmUOh1TTDEciFusOOAhTtdSISaOUhJ_xDIR2sDMwzfAt7ENicZen4MS7bVJKb3KOUjBtuMvyzMK_xZoabTADhDPM7cFUupVCBmUlwMQO_iImTDVW40]--></g></svg>